<svg fill="none" height="323" viewBox="0 0 644 323" width="644" xmlns="http://www.w3.org/2000/svg" xmlns:xlink="http://www.w3.org/1999/xlink"><filter id="a" color-interpolation-filters="sRGB" filterUnits="userSpaceOnUse" height="241" width="844" x="-100" y="-100"><feFlood flood-opacity="0" result="BackgroundImageFix"/><feGaussianBlur in="BackgroundImageFix" stdDeviation="50"/><feComposite in2="SourceAlpha" operator="in" result="effect1_backgroundBlur_394_6466"/><feBlend in="SourceGraphic" in2="effect1_backgroundBlur_394_6466" mode="normal" result="shape"/></filter><linearGradient id="b" gradientUnits="userSpaceOnUse" x1="322" x2="322" y1="41" y2="323"><stop offset=".38488" stop-opacity="0"/><stop offset="1"/></linearGradient><clipPath id="c"><rect height="323" rx="8" width="644"/></clipPath><mask id="d" fill="#fff"><path d="m0 0h644v41h-644z" fill="#fff"/></mask><g clip-path="url(#c)"><rect fill="#111121" height="323" rx="8" width="644"/><g filter="url(#a)"><path d="m0 0h644v41h-644z" fill="#f5f5f5"/><path d="m644 40.5h-644v1h644z" fill="#fff" fill-opacity=".12" mask="url(#d)"/><g stroke-width=".5"><circle cx="30" cy="20.5" fill="#ff6058" r="5.75" stroke="#e14942"/><circle cx="50" cy="20.5" fill="#ffc130" r="5.75" stroke="#e1a325"/><circle cx="70" cy="20.5" fill="#27ca40" r="5.75" stroke="#3eaf3f"/></g></g><path d="m.5 41.5h643v281h-643z" fill="#fff"/><path d="m.5 41.5h643v281h-643z" fill="url(#b)" fill-opacity=".08"/><path d="m.5 41.5h643v281h-643z" stroke="#dadce0"/><path d="m26.456 79.92v1.52l-6.128-3.568v-1.088l6.128-3.344v1.536l-4.784 2.32v.112l2.528 1.296zm57.165 22.336h-5.968v-1.296h5.968zm0 3.28h-5.968v-1.28h5.968zm-1.6875 22.72h-5.968v-1.296h5.968zm0 3.28h-5.968v-1.28h5.968zm34.9155 22.72h-5.968v-1.296h5.968zm0 3.28h-5.968v-1.28h5.968zm1.549-1.648v-.992c.704 0 1.056-.4 1.056-1.184v-5.12c0-.704.384-1.088 1.072-1.088h1.712v.88h-1.776v5.296c0 .976-.512 1.6-1.168 1.664v.048c.656.112 1.168.752 1.168 1.712v5.472h1.776v.864h-1.712c-.72 0-1.072-.368-1.072-1.088v-5.296c0-.816-.432-1.168-1.056-1.168zm88.388-.992v.992c-.624 0-1.072.352-1.072 1.168v5.296c0 .72-.352 1.088-1.072 1.088h-1.696v-.864h1.776v-5.472c0-.96.512-1.6 1.168-1.712v-.048c-.656-.064-1.168-.688-1.168-1.664v-5.296h-1.776v-.88h1.696c.72 0 1.072.368 1.072 1.088v5.12c0 .704.352 1.184 1.072 1.184zm-79.913 25.36h-5.968v-1.296h5.968zm0 3.28h-5.968v-1.28h5.968zm1.549-1.648v-.992c.704 0 1.056-.4 1.056-1.184v-5.12c0-.704.384-1.088 1.072-1.088h1.712v.88h-1.776v5.296c0 .976-.512 1.6-1.168 1.664v.048c.656.112 1.168.752 1.168 1.712v5.472h1.776v.864h-1.712c-.72 0-1.072-.368-1.072-1.088v-5.296c0-.816-.432-1.168-1.056-1.168zm98.413-.992v.992c-.624 0-1.072.352-1.072 1.168v5.296c0 .72-.352 1.088-1.072 1.088h-1.696v-.864h1.776v-5.472c0-.96.512-1.6 1.168-1.712v-.048c-.656-.064-1.168-.688-1.168-1.664v-5.296h-1.776v-.88h1.696c.72 0 1.072.368 1.072 1.088v5.12c0 .704.352 1.184 1.072 1.184zm-73.038 25.36h-5.968v-1.296h5.968zm0 3.28h-5.968v-1.28h5.968zm1.549-1.648v-.992c.704 0 1.056-.4 1.056-1.184v-5.12c0-.704.384-1.088 1.072-1.088h1.712v.88h-1.776v5.296c0 .976-.512 1.6-1.168 1.664v.048c.656.112 1.168.752 1.168 1.712v5.472h1.776v.864h-1.712c-.72 0-1.072-.368-1.072-1.088v-5.296c0-.816-.432-1.168-1.056-1.168zm5.845 30.112h-1.792v-2.016h1.792zm-127.7079 20.896v.992c-.624 0-1.072.352-1.072 1.168v5.296c0 .72-.352 1.088-1.072 1.088h-1.696v-.864h1.776v-5.472c0-.96.512-1.6 1.168-1.712v-.048c-.656-.064-1.168-.688-1.168-1.664v-5.296h-1.776v-.88h1.696c.72 0 1.072.368 1.072 1.088v5.12c0 .704.352 1.184 1.072 1.184zm-13.0111 31.104h-1.008l4.64-11.664h1.024zm12.3381-4.128-6.144 3.568v-1.52l2.256-1.216 2.544-1.296v-.112l-4.8-2.32v-1.536l6.144 3.344z" fill="#8ab0cc"/><path d="m30.6114 82h-1.456v-11.664h5.072c2.432 0 3.648 1.376 3.648 3.68 0 2.368-1.28 3.728-3.648 3.728h-3.616zm0-10.32v4.784h3.552c1.392 0 2.176-.72 2.176-1.872v-1.168c0-1.104-.784-1.744-2-1.744zm10.0609 1.968h2.896v1.152h-2.768v7.2h-1.392v-7.12c0-.816.416-1.232 1.264-1.232zm3.103 4.176c0-1.344.368-2.4 1.104-3.168.736-.784 1.712-1.168 2.912-1.168s2.176.384 2.896 1.152c.736.768 1.104 1.824 1.104 3.184 0 2.64-1.488 4.336-4 4.336-1.248 0-2.224-.384-2.944-1.168s-1.072-1.84-1.072-3.168zm1.424-.608v1.296c0 1.584 1.12 2.496 2.592 2.496 1.488 0 2.592-.944 2.592-2.496v-1.296c0-1.536-1.072-2.56-2.592-2.56-.752 0-1.376.24-1.872.72-.48.464-.72 1.088-.72 1.84zm7.8497.608c0-1.344.368-2.4 1.104-3.168.736-.784 1.712-1.168 2.912-1.168s2.176.384 2.896 1.152c.736.768 1.104 1.824 1.104 3.184 0 2.64-1.488 4.336-4 4.336-1.248 0-2.224-.384-2.944-1.168s-1.072-1.84-1.072-3.168zm1.424-.608v1.296c0 1.584 1.12 2.496 2.592 2.496 1.488 0 2.592-.944 2.592-2.496v-1.296c0-1.536-1.072-2.56-2.592-2.56-.752 0-1.376.24-1.872.72-.48.464-.72 1.088-.72 1.84zm12.3815-5.808h-2.16v2.24h1.808v1.152h-1.808v7.2h-1.376v-7.2h-1.632v-1.152h1.632v-2.224c0-.768.448-1.152 1.328-1.152h2.208zm2.0414 9.184c-.944-1.056-1.424-2.528-1.424-4.416s.48-3.36 1.44-4.4c.96-1.056 2.304-1.584 4.016-1.584s3.056.528 4.016 1.584c.96 1.04 1.44 2.512 1.44 4.4s-.48 3.36-1.44 4.416c-.944 1.04-2.288 1.568-4.016 1.568s-3.072-.528-4.032-1.568zm.112-5.248v1.632c0 2.432 1.536 3.872 3.92 3.872 2.48 0 3.92-1.504 3.92-3.872v-1.632c0-1.2-.352-2.144-1.072-2.816-.704-.688-1.648-1.024-2.848-1.024-2.48 0-3.92 1.488-3.92 3.84zm15.1753-3.936h-2.16v2.24h1.808v1.152h-1.808v7.2h-1.376v-7.2h-1.632v-1.152h1.632v-2.224c0-.768.448-1.152 1.328-1.152h2.208zm2.9694 10.592h-1.456v-11.664h5.072c2.432 0 3.648 1.376 3.648 3.68 0 2.368-1.28 3.728-3.648 3.728h-3.616zm0-10.32v4.784h3.552c1.392 0 2.176-.72 2.176-1.872v-1.168c0-1.104-.784-1.744-2-1.744zm7.9054 7.92c0-1.648 1.136-2.576 3.04-2.576h2.512v-.64c0-1.2-.624-1.792-1.888-1.792-1.232 0-1.904.592-1.952 1.552h-1.36c.08-1.664 1.36-2.656 3.392-2.656 1.104 0 1.968.368 2.4.816.208.224.384.48.512.784.256.592.272.944.272 1.328v4.56h1.232v1.024h-1.424c-.768 0-1.04-.32-1.088-.944l-.016-.432h-.096c-.368.944-1.488 1.536-2.848 1.536-1.68 0-2.688-1.008-2.688-2.56zm1.424-.352v.512c0 .832.624 1.28 1.584 1.28 1.552 0 2.544-1.024 2.544-2.56v-.448h-2.384c-1.104 0-1.744.496-1.744 1.216zm7.443.224h1.376c0 .976.8 1.6 2.032 1.6 1.168 0 1.872-.512 1.872-1.392 0-.624-.368-1.008-1.104-1.152l-1.792-.336c-1.488-.272-2.224-1.008-2.224-2.208 0-1.552 1.232-2.496 3.152-2.496 1.984 0 3.184 1.008 3.2 2.544h-1.376c-.032-.976-.64-1.472-1.824-1.472-1.136 0-1.76.496-1.76 1.28 0 .448.192.768.528.944.336.144.48.192.816.256l1.648.304c1.456.256 2.192 1.008 2.192 2.256 0 1.6-1.296 2.56-3.328 2.56-2.112 0-3.408-1.072-3.408-2.688zm7.743 0h1.376c0 .976.8 1.6 2.032 1.6 1.168 0 1.872-.512 1.872-1.392 0-.624-.368-1.008-1.104-1.152l-1.792-.336c-1.488-.272-2.224-1.008-2.224-2.208 0-1.552 1.232-2.496 3.152-2.496 1.984 0 3.184 1.008 3.2 2.544h-1.376c-.032-.976-.64-1.472-1.824-1.472-1.136 0-1.76.496-1.76 1.28 0 .448.192.768.528.944.336.144.48.192.816.256l1.648.304c1.456.256 2.192 1.008 2.192 2.256 0 1.6-1.296 2.56-3.328 2.56-2.112 0-3.408-1.072-3.408-2.688zm9.854 5.2h-1.392v-11.024h1.248l.144 1.472h.096c.56-1.04 1.632-1.632 2.992-1.632 2.176 0 3.472 1.568 3.472 4.272 0 2.736-1.296 4.288-3.472 4.288-1.408 0-2.464-.608-2.992-1.632h-.096zm2.704-3.792c1.488 0 2.432-.88 2.432-2.272v-1.68c0-1.392-.944-2.288-2.432-2.288-1.616 0-2.704 1.056-2.704 2.608v1.04c0 1.552 1.088 2.592 2.704 2.592zm5.099-3.056c0-1.344.368-2.4 1.104-3.168.736-.784 1.712-1.168 2.912-1.168s2.176.384 2.896 1.152c.736.768 1.104 1.824 1.104 3.184 0 2.64-1.488 4.336-4 4.336-1.248 0-2.224-.384-2.944-1.168s-1.072-1.84-1.072-3.168zm1.424-.608v1.296c0 1.584 1.12 2.496 2.592 2.496 1.488 0 2.592-.944 2.592-2.496v-1.296c0-1.536-1.072-2.56-2.592-2.56-.752 0-1.376.24-1.872.72-.48.464-.72 1.088-.72 1.84zm9.646-3.568h2.896v1.152h-2.768v7.2h-1.392v-7.12c0-.816.416-1.232 1.264-1.232zm6.081 1.152v6.048h1.76v1.152h-1.92c-.816 0-1.216-.384-1.216-1.168v-6.032h-1.52v-1.152h1.52v-2.768h1.376v2.768h1.744v1.152zm-59.5617 23.632-.368 2.576h-.576l-.368-2.576v-2.096h1.312zm2.576 0-.352 2.576h-.592l-.368-2.576v-2.096h1.312zm1.2402 7.168c0-1.648 1.136-2.576 3.04-2.576h2.512v-.64c0-1.2-.624-1.792-1.888-1.792-1.232 0-1.904.592-1.952 1.552h-1.36c.08-1.664 1.36-2.656 3.392-2.656 1.104 0 1.968.368 2.4.816.208.224.384.48.512.784.256.592.272.944.272 1.328v4.56h1.232v1.024h-1.424c-.768 0-1.04-.32-1.088-.944l-.016-.432h-.096c-.368.944-1.488 1.536-2.848 1.536-1.68 0-2.688-1.008-2.688-2.56zm1.424-.352v.512c0 .832.624 1.28 1.584 1.28 1.552 0 2.544-1.024 2.544-2.56v-.448h-2.384c-1.104 0-1.744.496-1.744 1.216zm9.5555 5.424h-1.392v-11.024h1.248l.144 1.472h.096c.56-1.04 1.632-1.632 2.992-1.632 2.176 0 3.472 1.568 3.472 4.272 0 2.736-1.296 4.288-3.472 4.288-1.408 0-2.464-.608-2.992-1.632h-.096zm2.704-3.792c1.488 0 2.432-.88 2.432-2.272v-1.68c0-1.392-.944-2.288-2.432-2.288-1.616 0-2.704 1.056-2.704 2.608v1.04c0 1.552 1.088 2.592 2.704 2.592zm7.022 3.792h-1.392v-11.024h1.248l.144 1.472h.096c.56-1.04 1.632-1.632 2.992-1.632 2.176 0 3.472 1.568 3.472 4.272 0 2.736-1.296 4.288-3.472 4.288-1.408 0-2.464-.608-2.992-1.632h-.096zm2.704-3.792c1.488 0 2.432-.88 2.432-2.272v-1.68c0-1.392-.944-2.288-2.432-2.288-1.616 0-2.704 1.056-2.704 2.608v1.04c0 1.552 1.088 2.592 2.704 2.592zm9.695 2.24h-5.488v-1.12h5.488zm.366-6.848c0-1.936.496-3.424 1.504-4.48 1.008-1.072 2.32-1.6 3.968-1.6 1.28 0 2.368.336 3.28.992s1.456 1.504 1.664 2.576h-1.52c-.304-1.36-1.648-2.256-3.392-2.256-1.168 0-2.128.352-2.864 1.056s-1.104 1.632-1.104 2.784v1.824c0 1.104.352 2 1.04 2.688.704.688 1.616 1.04 2.752 1.04 1.104 0 2.016-.352 2.704-1.04.704-.704 1.056-1.632 1.072-2.784h-4.16v-1.248h5.808v6.176h-1.2l-.144-2.032h-.112c-.832 1.456-2.336 2.192-4.176 2.192-1.6 0-2.848-.528-3.76-1.584s-1.36-2.496-1.36-4.304zm18.749 5.728h-5.392v-11.664h5.52c2.064 0 3.152 1.12 3.152 2.96 0 1.232-.592 2.224-1.664 2.624v.128c1.312.336 1.968 1.296 1.968 2.864 0 1.872-1.344 3.088-3.584 3.088zm-3.952-10.432v3.888h3.984c1.088 0 1.76-.592 1.76-1.552v-.816c0-.944-.64-1.52-1.776-1.52zm0 5.104v4.096h3.856c1.296 0 2.144-.624 2.144-1.6v-.848c0-1.04-.736-1.648-1.904-1.648zm16.622 5.328h-1.584l-2.752-4.128-1.456 1.472v2.656h-1.392v-11.728h1.392v7.344l3.856-3.968h1.776l-3.216 3.264zm.651-11.664h8.608v1.168l-6.736 9.168h6.656v1.328h-8.528v-1.168l6.736-9.168h-6.736zm12.625 3.184h-2.896v-1.088h.448c1.488 0 2.496-.768 2.544-1.968h1.296v11.536h-1.392zm14.017 8.48h-1.712l-3.648-5.424-2.24 2.688v2.736h-1.456v-11.664h1.456v6.944l5.728-6.944h1.712l-4.24 5.088zm2.51 0h-1.376v-11.728h1.376zm7.244 0h-1.872l-4.192-11.664h1.584l1.952 5.568 1.536 4.768h.096l1.552-4.752 1.984-5.584h1.552zm5.196-4.32v-7.344h1.44v7.216c0 2.048 1.248 3.264 3.232 3.264s3.248-1.216 3.248-3.264v-7.216h1.424v7.344c0 1.36-.416 2.448-1.248 3.264s-1.968 1.216-3.424 1.216c-1.472 0-2.624-.4-3.44-1.216s-1.232-1.904-1.232-3.264zm14.742 4.48c-2.176 0-3.472-1.568-3.472-4.272 0-2.736 1.296-4.288 3.472-4.288 1.408 0 2.464.608 2.992 1.632h.096v-4.96h1.392v11.728h-1.248l-.144-1.456h-.096c-.576 1.072-1.568 1.616-2.992 1.616zm.384-1.152c1.616 0 2.704-1.056 2.704-2.608v-1.04c0-1.552-1.088-2.592-2.704-2.592-1.488 0-2.432.88-2.432 2.272v1.68c0 1.392.944 2.288 2.432 2.288zm6.831-7.184h-1.2v-3.36h7.84v.992c-1.104 1.488-2.08 3.2-2.928 5.104s-1.44 3.728-1.776 5.44h-1.52c.304-1.632.848-3.376 1.664-5.216.816-1.856 1.776-3.552 2.848-5.072h-4.928zm6.846-3.488h8.704v1.312h-3.616v10.352h-1.44v-10.352h-3.648zm10.043 1.76v-1.824h1.36v1.824zm0 11.456v-9.904h1.36v9.792c0 .256-.016.4-.16.72-.128.32-.512.512-1.088.512h-1.952v-1.12zm6.924-10.064c2.288 0 3.712 1.44 3.712 3.76 0 .32-.016.608-.048.864h-6.16v.48c0 1.472 1.008 2.448 2.544 2.448 1.168 0 2.064-.608 2.336-1.552h1.376c-.176.816-.592 1.456-1.28 1.952-.688.48-1.504.72-2.464.72-2.432 0-3.936-1.68-3.936-4.368s1.504-4.304 3.92-4.304zm-2.496 3.376v.224h4.832v-.32c0-1.296-.944-2.16-2.336-2.16-1.472 0-2.496.912-2.496 2.256zm9.702 5.136h-1.44v-11.664h1.952l3.664 8.432h.096l3.68-8.432h1.936v11.664h-1.424v-6.32l.128-3.424h-.096l-4.272 9.536-4.256-9.536h-.112l.144 3.44zm13.074 0h-1.664l3.712-5.904-3.584-5.76h1.664l1.52 2.448 1.408 2.432h.096l1.536-2.544 1.424-2.336h1.664l-3.664 5.824 3.664 5.84h-1.68l-1.392-2.192-1.584-2.64h-.096l-1.696 2.768zm18.136 0h-1.712l-3.648-5.424-2.24 2.688v2.736h-1.456v-11.664h1.456v6.944l5.728-6.944h1.712l-4.24 5.088zm2.51 0h-1.376v-11.728h1.376zm1.757-2.4c0-1.648 1.136-2.576 3.04-2.576h2.512v-.64c0-1.2-.624-1.792-1.888-1.792-1.232 0-1.904.592-1.952 1.552h-1.36c.08-1.664 1.36-2.656 3.392-2.656 1.104 0 1.968.368 2.4.816.208.224.384.48.512.784.256.592.272.944.272 1.328v4.56h1.232v1.024h-1.424c-.768 0-1.04-.32-1.088-.944l-.016-.432h-.096c-.368.944-1.488 1.536-2.848 1.536-1.68 0-2.688-1.008-2.688-2.56zm1.424-.352v.512c0 .832.624 1.28 1.584 1.28 1.552 0 2.544-1.024 2.544-2.56v-.448h-2.384c-1.104 0-1.744.496-1.744 1.216zm8.291-1.568v-7.344h1.44v7.216c0 2.048 1.248 3.264 3.232 3.264s3.248-1.216 3.248-3.264v-7.216h1.424v7.344c0 1.36-.416 2.448-1.248 3.264s-1.968 1.216-3.424 1.216c-1.472 0-2.624-.4-3.44-1.216s-1.232-1.904-1.232-3.264zm14.742 4.48c-2.176 0-3.472-1.568-3.472-4.272 0-2.736 1.296-4.288 3.472-4.288 1.408 0 2.464.608 2.992 1.632h.096v-4.96h1.392v11.728h-1.248l-.144-1.456h-.096c-.576 1.072-1.568 1.616-2.992 1.616zm.384-1.152c1.616 0 2.704-1.056 2.704-2.608v-1.04c0-1.552-1.088-2.592-2.704-2.592-1.488 0-2.432.88-2.432 2.272v1.68c0 1.392.944 2.288 2.432 2.288zm8.239.992h-1.456v-11.664h7.632v1.328h-6.176v4.464h5.536v1.264h-5.536zm6.782-11.664h8.704v1.312h-3.616v10.352h-1.44v-10.352h-3.648zm10.682 2.096-.368 2.576h-.576l-.368-2.576v-2.096h1.312zm2.576 0-.352 2.576h-.592l-.368-2.576v-2.096h1.312zm-254.2092 26-.368 2.576h-.576l-.368-2.576v-2.096h1.312zm2.576 0-.352 2.576h-.592l-.368-2.576v-2.096h1.312zm3.5922 9.568-3.04-8.352h1.52l1.472 4.448.816 2.48h.096l.768-2.48 1.472-4.448h1.52l-2.976 8.352zm4.969-4.176c0-1.344.368-2.4 1.104-3.168.736-.784 1.712-1.168 2.912-1.168s2.176.384 2.896 1.152c.736.768 1.104 1.824 1.104 3.184 0 2.64-1.488 4.336-4 4.336-1.248 0-2.224-.384-2.944-1.168s-1.072-1.84-1.072-3.168zm1.424-.608v1.296c0 1.584 1.12 2.496 2.592 2.496 1.488 0 2.592-.944 2.592-2.496v-1.296c0-1.536-1.072-2.56-2.592-2.56-.752 0-1.376.24-1.872.72-.48.464-.72 1.088-.72 1.84zm10.093-2.416v6.048h1.76v1.152h-1.92c-.816 0-1.216-.384-1.216-1.168v-6.032h-1.52v-1.152h1.52v-2.768h1.376v2.768h1.744v1.152zm6.622-1.312c2.288 0 3.712 1.44 3.712 3.76 0 .32-.016.608-.048.864h-6.16v.48c0 1.472 1.008 2.448 2.544 2.448 1.168 0 2.064-.608 2.336-1.552h1.376c-.176.816-.592 1.456-1.28 1.952-.688.48-1.504.72-2.464.72-2.432 0-3.936-1.68-3.936-4.368s1.504-4.304 3.92-4.304zm-2.496 3.376v.224h4.832v-.32c0-1.296-.944-2.16-2.336-2.16-1.472 0-2.496.912-2.496 2.256zm12.102 6.256h-5.488v-1.12h5.488zm3.31-9.6h-2.896v-1.088h.448c1.488 0 2.496-.768 2.544-1.968h1.296v11.536h-1.392zm5.552-1.088-.368 2.576h-.576l-.368-2.576v-2.096h1.312zm2.576 0-.352 2.576h-.592l-.368-2.576v-2.096h1.312zm32.734 113.568h-4.72v-11.664h4.72c3.472 0 4.896 2 4.896 5.84 0 3.856-1.44 5.824-4.896 5.824zm-3.264-10.336v9.008h3.248c2.304 0 3.376-1.056 3.376-3.536v-1.92c0-2.512-1.12-3.552-3.376-3.552zm13.373 1.824c2.288 0 3.712 1.44 3.712 3.76 0 .32-.016.608-.048.864h-6.16v.48c0 1.472 1.008 2.448 2.544 2.448 1.168 0 2.064-.608 2.336-1.552h1.376c-.176.816-.592 1.456-1.28 1.952-.688.48-1.504.72-2.464.72-2.432 0-3.936-1.68-3.936-4.368s1.504-4.304 3.92-4.304zm-2.496 3.376v.224h4.832v-.32c0-1.296-.944-2.16-2.336-2.16-1.472 0-2.496.912-2.496 2.256zm9.654 5.136-3.04-8.352h1.52l1.472 4.448.816 2.48h.096l.768-2.48 1.472-4.448h1.52l-2.976 8.352zm7.064-9.904h-1.376v-1.824h1.376zm0 9.904h-1.376v-8.352h1.376zm8.077-2.848h1.376c-.272 1.856-1.68 3.008-3.712 3.008-1.232 0-2.208-.384-2.912-1.168s-1.056-1.824-1.056-3.152c0-1.36.368-2.432 1.104-3.2s1.712-1.152 2.912-1.152c1.936 0 3.344 1.136 3.616 2.88h-1.376c-.272-1.136-1.152-1.712-2.304-1.712-1.488 0-2.528 1.072-2.528 2.608v1.264c0 1.488 1.008 2.48 2.528 2.48 1.232 0 2.144-.72 2.352-1.856zm6.327-5.664c2.288 0 3.712 1.44 3.712 3.76 0 .32-.016.608-.048.864h-6.16v.48c0 1.472 1.008 2.448 2.544 2.448 1.168 0 2.064-.608 2.336-1.552h1.376c-.176.816-.592 1.456-1.28 1.952-.688.48-1.504.72-2.464.72-2.432 0-3.936-1.68-3.936-4.368s1.504-4.304 3.92-4.304zm-2.496 3.376v.224h4.832v-.32c0-1.296-.944-2.16-2.336-2.16-1.472 0-2.496.912-2.496 2.256z" fill="#ac7700"/><path d="m29.9311 105.6c0-1.648 1.136-2.576 3.04-2.576h2.512v-.64c0-1.2-.624-1.792-1.888-1.792-1.232 0-1.904.592-1.952 1.552h-1.36c.08-1.664 1.36-2.656 3.392-2.656 1.104 0 1.968.368 2.4.816.208.224.384.48.512.784.256.592.272.944.272 1.328v4.56h1.232v1.024h-1.424c-.768 0-1.04-.32-1.088-.944l-.016-.432h-.096c-.368.944-1.488 1.536-2.848 1.536-1.68 0-2.688-1.008-2.688-2.56zm1.424-.352v.512c0 .832.624 1.28 1.584 1.28 1.552 0 2.544-1.024 2.544-2.56v-.448h-2.384c-1.104 0-1.744.496-1.744 1.216zm9.5551 5.424h-1.392v-11.024h1.248l.144 1.472h.096c.56-1.04 1.632-1.632 2.992-1.632 2.176 0 3.4721 1.568 3.4721 4.272 0 2.736-1.2961 4.288-3.4721 4.288-1.408 0-2.464-.608-2.992-1.632h-.096zm2.704-3.792c1.488 0 2.432-.88 2.432-2.272v-1.68c0-1.392-.944-2.288-2.432-2.288-1.616 0-2.704 1.056-2.704 2.608v1.04c0 1.552 1.088 2.592 2.704 2.592zm7.0229 3.792h-1.392v-11.024h1.248l.144 1.472h.096c.56-1.04 1.632-1.632 2.992-1.632 2.176 0 3.472 1.568 3.472 4.272 0 2.736-1.296 4.288-3.472 4.288-1.408 0-2.464-.608-2.992-1.632h-.096zm2.704-3.792c1.488 0 2.432-.88 2.432-2.272v-1.68c0-1.392-.944-2.288-2.432-2.288-1.616 0-2.704 1.056-2.704 2.608v1.04c0 1.552 1.088 2.592 2.704 2.592zm9.6949 2.24h-5.488v-1.12h5.488zm2.4139-11.024h-1.376v-1.824h1.376zm0 9.904h-1.376v-8.352h1.376zm5.2442.16c-2.176 0-3.472-1.568-3.472-4.272 0-2.736 1.296-4.288 3.472-4.288 1.408 0 2.464.608 2.992 1.632h.096v-4.96h1.392v11.728h-1.248l-.144-1.456h-.096c-.576 1.072-1.568 1.616-2.992 1.616zm.384-1.152c1.616 0 2.704-1.056 2.704-2.608v-1.04c0-1.552-1.088-2.592-2.704-2.592-1.488 0-2.432.88-2.432 2.272v1.68c0 1.392.944 2.288 2.432 2.288zm-41.147 24.592c0-1.648 1.136-2.576 3.04-2.576h2.512v-.64c0-1.2-.624-1.792-1.888-1.792-1.232 0-1.904.592-1.952 1.552h-1.36c.08-1.664 1.36-2.656 3.392-2.656 1.104 0 1.968.368 2.4.816.208.224.384.48.512.784.256.592.272.944.272 1.328v4.56h1.232v1.024h-1.424c-.768 0-1.04-.32-1.088-.944l-.016-.432h-.096c-.368.944-1.488 1.536-2.848 1.536-1.68 0-2.688-1.008-2.688-2.56zm1.424-.352v.512c0 .832.624 1.28 1.584 1.28 1.552 0 2.544-1.024 2.544-2.56v-.448h-2.384c-1.104 0-1.744.496-1.744 1.216zm13.7791-.096h1.3761c-.2721 1.856-1.6801 3.008-3.7121 3.008-1.232 0-2.208-.384-2.912-1.168s-1.056-1.824-1.056-3.152c0-1.36.368-2.432 1.104-3.2s1.712-1.152 2.912-1.152c1.936 0 3.344 1.136 3.616 2.88h-1.376c-.272-1.136-1.152-1.712-2.304-1.712-1.488 0-2.528 1.072-2.528 2.608v1.264c0 1.488 1.008 2.48 2.528 2.48 1.232 0 2.144-.72 2.352-1.856zm4.8073-4.352v6.048h1.76v1.152h-1.92c-.816 0-1.216-.384-1.216-1.168v-6.032h-1.52v-1.152h1.52v-2.768h1.376v2.768h1.744v1.152zm4.8596-2.704h-1.376v-1.824h1.376zm0 9.904h-1.376v-8.352h1.376zm1.7723-4.176c0-1.344.368-2.4 1.104-3.168.736-.784 1.712-1.168 2.912-1.168s2.176.384 2.896 1.152c.736.768 1.104 1.824 1.104 3.184 0 2.64-1.488 4.336-4 4.336-1.248 0-2.224-.384-2.944-1.168s-1.072-1.84-1.072-3.168zm1.424-.608v1.296c0 1.584 1.12 2.496 2.592 2.496 1.488 0 2.592-.944 2.592-2.496v-1.296c0-1.536-1.072-2.56-2.592-2.56-.752 0-1.376.24-1.872.72-.48.464-.72 1.088-.72 1.84zm9.7735 4.784h-1.392v-8.352h1.216l.176 1.552h.112c.512-1.072 1.552-1.712 2.816-1.712 1.808 0 2.896 1.312 2.896 3.376v5.136h-1.392v-4.992c0-1.52-.656-2.288-1.968-2.288-1.472 0-2.464 1.168-2.464 2.912zm-37.8238 21.824c0-1.344.368-2.4 1.104-3.168.736-.784 1.712-1.168 2.912-1.168s2.176.384 2.896 1.152c.736.768 1.104 1.824 1.104 3.184 0 2.64-1.488 4.336-4 4.336-1.248 0-2.224-.384-2.944-1.168s-1.072-1.84-1.072-3.168zm1.424-.608v1.296c0 1.584 1.12 2.496 2.592 2.496 1.488 0 2.592-.944 2.592-2.496v-1.296c0-1.536-1.072-2.56-2.592-2.56-.752 0-1.376.24-1.872.72-.48.464-.72 1.088-.72 1.84zm9.7735 4.784h-1.392v-8.352h1.216l.176 1.552h.112c.512-1.072 1.552-1.712 2.816-1.712 1.808 0 2.896 1.312 2.896 3.376v5.136h-1.392v-4.992c0-1.52-.656-2.288-1.968-2.288-1.472 0-2.464 1.168-2.464 2.912zm7.5546-3.6h1.504c.016 1.68 1.232 2.576 3.1041 2.576 1.7439 0 2.8479-.816 2.8479-2.16 0-.704-.2559-1.2-.752-1.456-.496-.272-.6559-.32-1.1039-.432l-2.0481-.464-.752-.176c-.176-.048-.448-.16-.816-.32-.352-.176-.64-.352-.848-.544-.4-.384-.816-1.12-.816-2.016 0-1.008.368-1.792 1.12-2.368s1.728-.864 2.96-.864c1.264 0 2.2721.304 3.04.896.7681.592 1.1681 1.424 1.184 2.48h-1.488c-.08-1.408-1.1199-2.192-2.736-2.192-1.6 0-2.56.752-2.56 1.904 0 .624.272 1.088.768 1.36.512.256.8.336 1.312.448l2.192.48c1.92.416 2.88 1.456 2.88 3.12 0 1.104-.3999 1.952-1.2159 2.576-.8.608-1.872.912-3.2161.912-1.472 0-2.608-.352-3.392-1.056-.784-.72-1.168-1.616-1.168-2.704zm16.6228-4.752h1.392v8.352h-1.184l-.192-1.552h-.128c-.448 1.04-1.536 1.712-2.832 1.712-1.728 0-2.768-1.152-2.768-3.184v-5.328h1.376v5.136c0 1.472.624 2.208 1.856 2.208 1.52 0 2.48-1.2 2.48-2.976zm9.4772 5.504h1.376c-.272 1.856-1.68 3.008-3.712 3.008-1.232 0-2.208-.384-2.912-1.168s-1.056-1.824-1.056-3.152c0-1.36.368-2.432 1.104-3.2s1.712-1.152 2.912-1.152c1.936 0 3.344 1.136 3.616 2.88h-1.376c-.272-1.136-1.152-1.712-2.304-1.712-1.488 0-2.528 1.072-2.528 2.608v1.264c0 1.488 1.008 2.48 2.528 2.48 1.232 0 2.144-.72 2.352-1.856zm8.7113 0h1.376c-.272 1.856-1.68 3.008-3.712 3.008-1.232 0-2.208-.384-2.912-1.168s-1.056-1.824-1.056-3.152c0-1.36.368-2.432 1.104-3.2s1.712-1.152 2.912-1.152c1.936 0 3.344 1.136 3.616 2.88h-1.376c-.272-1.136-1.152-1.712-2.304-1.712-1.488 0-2.528 1.072-2.528 2.608v1.264c0 1.488 1.008 2.48 2.528 2.48 1.232 0 2.144-.72 2.352-1.856zm6.3273-5.664c2.288 0 3.712 1.44 3.712 3.76 0 .32-.016.608-.048.864h-6.16v.48c0 1.472 1.008 2.448 2.544 2.448 1.168 0 2.064-.608 2.336-1.552h1.376c-.176.816-.592 1.456-1.28 1.952-.688.48-1.504.72-2.464.72-2.432 0-3.936-1.68-3.936-4.368s1.504-4.304 3.92-4.304zm-2.496 3.376v.224h4.832v-.32c0-1.296-.944-2.16-2.336-2.16-1.472 0-2.496.912-2.496 2.256zm7.3177 2.608h1.376c0 .976.8 1.6 2.032 1.6 1.168 0 1.872-.512 1.872-1.392 0-.624-.368-1.008-1.104-1.152l-1.792-.336c-1.488-.272-2.224-1.008-2.224-2.208 0-1.552 1.232-2.496 3.152-2.496 1.984 0 3.1845 1.008 3.2005 2.544h-1.3765c-.032-.976-.64-1.472-1.824-1.472-1.136 0-1.76.496-1.76 1.28 0 .448.192.768.528.944.336.144.48.192.816.256l1.648.304c1.4565.256 2.1925 1.008 2.1925 2.256 0 1.6-1.296 2.56-3.3285 2.56-2.112 0-3.408-1.072-3.408-2.688zm7.7425 0h1.376c0 .976.8 1.6 2.032 1.6 1.168 0 1.872-.512 1.872-1.392 0-.624-.368-1.008-1.104-1.152l-1.792-.336c-1.488-.272-2.224-1.008-2.224-2.208 0-1.552 1.232-2.496 3.152-2.496 1.984 0 3.184 1.008 3.2 2.544h-1.376c-.032-.976-.64-1.472-1.824-1.472-1.136 0-1.76.496-1.76 1.28 0 .448.192.768.528.944.336.144.48.192.816.256l1.648.304c1.456.256 2.192 1.008 2.192 2.256 0 1.6-1.296 2.56-3.328 2.56-2.112 0-3.408-1.072-3.408-2.688zm20.619-1.648c0-1.344.368-2.4 1.104-3.168.736-.784 1.712-1.168 2.912-1.168s2.176.384 2.896 1.152c.736.768 1.104 1.824 1.104 3.184 0 2.64-1.488 4.336-4 4.336-1.248 0-2.224-.384-2.944-1.168s-1.072-1.84-1.072-3.168zm1.424-.608v1.296c0 1.584 1.12 2.496 2.592 2.496 1.488 0 2.592-.944 2.592-2.496v-1.296c0-1.536-1.072-2.56-2.592-2.56-.752 0-1.376.24-1.872.72-.48.464-.72 1.088-.72 1.84zm9.773 4.784h-1.392v-8.352h1.216l.176 1.552h.112c.512-1.072 1.552-1.712 2.816-1.712 1.808 0 2.896 1.312 2.896 3.376v5.136h-1.392v-4.992c0-1.52-.656-2.288-1.968-2.288-1.472 0-2.464 1.168-2.464 2.912zm7.555-3.6h1.504c.016 1.68 1.232 2.576 3.104 2.576 1.744 0 2.848-.816 2.848-2.16 0-.704-.256-1.2-.752-1.456-.496-.272-.656-.32-1.104-.432l-2.048-.464-.752-.176c-.176-.048-.448-.16-.816-.32-.352-.176-.64-.352-.848-.544-.4-.384-.816-1.12-.816-2.016 0-1.008.368-1.792 1.12-2.368s1.728-.864 2.96-.864c1.264 0 2.272.304 3.04.896s1.168 1.424 1.184 2.48h-1.488c-.08-1.408-1.12-2.192-2.736-2.192-1.6 0-2.56.752-2.56 1.904 0 .624.272 1.088.768 1.36.512.256.8.336 1.312.448l2.192.48c1.92.416 2.88 1.456 2.88 3.12 0 1.104-.4 1.952-1.216 2.576-.8.608-1.872.912-3.216.912-1.472 0-2.608-.352-3.392-1.056-.784-.72-1.168-1.616-1.168-2.704zm16.623-4.752h1.392v8.352h-1.184l-.192-1.552h-.128c-.448 1.04-1.536 1.712-2.832 1.712-1.728 0-2.768-1.152-2.768-3.184v-5.328h1.376v5.136c0 1.472.624 2.208 1.856 2.208 1.52 0 2.48-1.2 2.48-2.976zm9.477 5.504h1.376c-.272 1.856-1.68 3.008-3.712 3.008-1.232 0-2.208-.384-2.912-1.168s-1.056-1.824-1.056-3.152c0-1.36.368-2.432 1.104-3.2s1.712-1.152 2.912-1.152c1.936 0 3.344 1.136 3.616 2.88h-1.376c-.272-1.136-1.152-1.712-2.304-1.712-1.488 0-2.528 1.072-2.528 2.608v1.264c0 1.488 1.008 2.48 2.528 2.48 1.232 0 2.144-.72 2.352-1.856zm8.711 0h1.376c-.272 1.856-1.68 3.008-3.712 3.008-1.232 0-2.208-.384-2.912-1.168s-1.056-1.824-1.056-3.152c0-1.36.368-2.432 1.104-3.2s1.712-1.152 2.912-1.152c1.936 0 3.344 1.136 3.616 2.88h-1.376c-.272-1.136-1.152-1.712-2.304-1.712-1.488 0-2.528 1.072-2.528 2.608v1.264c0 1.488 1.008 2.48 2.528 2.48 1.232 0 2.144-.72 2.352-1.856zm6.328-5.664c2.288 0 3.712 1.44 3.712 3.76 0 .32-.016.608-.048.864h-6.16v.48c0 1.472 1.008 2.448 2.544 2.448 1.168 0 2.064-.608 2.336-1.552h1.376c-.176.816-.592 1.456-1.28 1.952-.688.48-1.504.72-2.464.72-2.432 0-3.936-1.68-3.936-4.368s1.504-4.304 3.92-4.304zm-2.496 3.376v.224h4.832v-.32c0-1.296-.944-2.16-2.336-2.16-1.472 0-2.496.912-2.496 2.256zm7.317 2.608h1.376c0 .976.8 1.6 2.032 1.6 1.168 0 1.872-.512 1.872-1.392 0-.624-.368-1.008-1.104-1.152l-1.792-.336c-1.488-.272-2.224-1.008-2.224-2.208 0-1.552 1.232-2.496 3.152-2.496 1.984 0 3.184 1.008 3.2 2.544h-1.376c-.032-.976-.64-1.472-1.824-1.472-1.136 0-1.76.496-1.76 1.28 0 .448.192.768.528.944.336.144.48.192.816.256l1.648.304c1.456.256 2.192 1.008 2.192 2.256 0 1.6-1.296 2.56-3.328 2.56-2.112 0-3.408-1.072-3.408-2.688zm7.743 0h1.376c0 .976.8 1.6 2.032 1.6 1.168 0 1.872-.512 1.872-1.392 0-.624-.368-1.008-1.104-1.152l-1.792-.336c-1.488-.272-2.224-1.008-2.224-2.208 0-1.552 1.232-2.496 3.152-2.496 1.984 0 3.184 1.008 3.2 2.544h-1.376c-.032-.976-.64-1.472-1.824-1.472-1.136 0-1.76.496-1.76 1.28 0 .448.192.768.528.944.336.144.48.192.816.256l1.648.304c1.456.256 2.192 1.008 2.192 2.256 0 1.6-1.296 2.56-3.328 2.56-2.112 0-3.408-1.072-3.408-2.688zm-163.4489 28.528h-1.392v-11.728h1.392v4.896h.096c.512-1.04 1.584-1.68 2.816-1.68 1.808 0 2.896 1.296 2.896 3.36v5.152h-1.376v-5.008c0-1.552-.656-2.336-1.984-2.336-1.472 0-2.448 1.152-2.448 2.928zm7.459-2.4c0-1.648 1.136-2.576 3.04-2.576h2.512v-.64c0-1.2-.624-1.792-1.888-1.792-1.232 0-1.904.592-1.952 1.552h-1.36c.08-1.664 1.36-2.656 3.392-2.656 1.104 0 1.968.368 2.4.816.208.224.384.48.512.784.256.592.272.944.272 1.328v4.56h1.232v1.024h-1.424c-.768 0-1.04-.32-1.088-.944l-.016-.432h-.096c-.368.944-1.488 1.536-2.848 1.536-1.68 0-2.688-1.008-2.688-2.56zm1.424-.352v.512c0 .832.624 1.28 1.584 1.28 1.552 0 2.544-1.024 2.544-2.56v-.448h-2.384c-1.104 0-1.744.496-1.744 1.216zm9.5551 2.752h-1.392v-8.352h1.216l.176 1.552h.112c.512-1.072 1.5521-1.712 2.816-1.712 1.8081 0 2.8961 1.312 2.8961 3.376v5.136h-1.392v-4.992c0-1.52-.656-2.288-1.9681-2.288-1.472 0-2.464 1.168-2.464 2.912zm10.9627.16c-2.176 0-3.472-1.568-3.472-4.272 0-2.736 1.296-4.288 3.472-4.288 1.408 0 2.464.608 2.992 1.632h.096v-4.96h1.392v11.728h-1.248l-.144-1.456h-.096c-.576 1.072-1.568 1.616-2.992 1.616zm.384-1.152c1.616 0 2.704-1.056 2.704-2.608v-1.04c0-1.552-1.088-2.592-2.704-2.592-1.488 0-2.432.88-2.432 2.272v1.68c0 1.392.944 2.288 2.432 2.288zm7.9348.992h-1.376v-11.728h1.376zm5.5673-8.512c2.288 0 3.712 1.44 3.712 3.76 0 .32-.016.608-.048.864h-6.16v.48c0 1.472 1.008 2.448 2.544 2.448 1.168 0 2.064-.608 2.336-1.552h1.376c-.176.816-.592 1.456-1.28 1.952-.688.48-1.504.72-2.464.72-2.432 0-3.936-1.68-3.936-4.368s1.504-4.304 3.92-4.304zm-2.496 3.376v.224h4.832v-.32c0-1.296-.944-2.16-2.336-2.16-1.472 0-2.496.912-2.496 2.256zm12.1811 5.136h-1.872l-4.192-11.664h1.584l1.952 5.568 1.536 4.768h.096l1.552-4.752 1.984-5.584h1.552zm7.6593-8.512c2.288 0 3.712 1.44 3.712 3.76 0 .32-.016.608-.048.864h-6.16v.48c0 1.472 1.008 2.448 2.544 2.448 1.168 0 2.064-.608 2.336-1.552h1.376c-.176.816-.592 1.456-1.28 1.952-.688.48-1.504.72-2.464.72-2.432 0-3.936-1.68-3.936-4.368s1.504-4.304 3.92-4.304zm-2.496 3.376v.224h4.832v-.32c0-1.296-.944-2.16-2.336-2.16-1.472 0-2.496.912-2.496 2.256zm9.3017-3.216h2.8959v1.152h-2.7679v7.2h-1.392v-7.12c0-.816.416-1.232 1.264-1.232zm5.5579-1.552h-1.376v-1.824h1.376zm0 9.904h-1.376v-8.352h1.376zm6.46-10.592h-2.16v2.24h1.808v1.152h-1.808v7.2h-1.376v-7.2h-1.632v-1.152h1.632v-2.224c0-.768.448-1.152 1.328-1.152h2.208zm3.51 9.6-3.472-7.36h1.52l1.216 2.736 1.36 3.2h.096l2.608-5.936h1.52l-3.472 7.376v2.416c0 .816-.4 1.232-1.216 1.232h-2.128v-1.136h1.968zm20.133.992h-1.392v-11.728h1.392v4.896h.096c.512-1.04 1.584-1.68 2.816-1.68 1.808 0 2.896 1.296 2.896 3.36v5.152h-1.376v-5.008c0-1.552-.656-2.336-1.984-2.336-1.472 0-2.448 1.152-2.448 2.928zm7.459-2.4c0-1.648 1.136-2.576 3.04-2.576h2.512v-.64c0-1.2-.624-1.792-1.888-1.792-1.232 0-1.904.592-1.952 1.552h-1.36c.08-1.664 1.36-2.656 3.392-2.656 1.104 0 1.968.368 2.4.816.208.224.384.48.512.784.256.592.272.944.272 1.328v4.56h1.232v1.024h-1.424c-.768 0-1.04-.32-1.088-.944l-.016-.432h-.096c-.368.944-1.488 1.536-2.848 1.536-1.68 0-2.688-1.008-2.688-2.56zm1.424-.352v.512c0 .832.624 1.28 1.584 1.28 1.552 0 2.544-1.024 2.544-2.56v-.448h-2.384c-1.104 0-1.744.496-1.744 1.216zm9.555 2.752h-1.392v-8.352h1.216l.176 1.552h.112c.512-1.072 1.552-1.712 2.816-1.712 1.808 0 2.896 1.312 2.896 3.376v5.136h-1.392v-4.992c0-1.52-.656-2.288-1.968-2.288-1.472 0-2.464 1.168-2.464 2.912zm10.963.16c-2.176 0-3.472-1.568-3.472-4.272 0-2.736 1.296-4.288 3.472-4.288 1.408 0 2.464.608 2.992 1.632h.096v-4.96h1.392v11.728h-1.248l-.144-1.456h-.096c-.576 1.072-1.568 1.616-2.992 1.616zm.384-1.152c1.616 0 2.704-1.056 2.704-2.608v-1.04c0-1.552-1.088-2.592-2.704-2.592-1.488 0-2.432.88-2.432 2.272v1.68c0 1.392.944 2.288 2.432 2.288zm7.935.992h-1.376v-11.728h1.376zm5.567-8.512c2.288 0 3.712 1.44 3.712 3.76 0 .32-.016.608-.048.864h-6.16v.48c0 1.472 1.008 2.448 2.544 2.448 1.168 0 2.064-.608 2.336-1.552h1.376c-.176.816-.592 1.456-1.28 1.952-.688.48-1.504.72-2.464.72-2.432 0-3.936-1.68-3.936-4.368s1.504-4.304 3.92-4.304zm-2.496 3.376v.224h4.832v-.32c0-1.296-.944-2.16-2.336-2.16-1.472 0-2.496.912-2.496 2.256zm12.181 5.136h-1.872l-4.192-11.664h1.584l1.952 5.568 1.536 4.768h.096l1.552-4.752 1.984-5.584h1.552zm7.66-8.512c2.288 0 3.712 1.44 3.712 3.76 0 .32-.016.608-.048.864h-6.16v.48c0 1.472 1.008 2.448 2.544 2.448 1.168 0 2.064-.608 2.336-1.552h1.376c-.176.816-.592 1.456-1.28 1.952-.688.48-1.504.72-2.464.72-2.432 0-3.936-1.68-3.936-4.368s1.504-4.304 3.92-4.304zm-2.496 3.376v.224h4.832v-.32c0-1.296-.944-2.16-2.336-2.16-1.472 0-2.496.912-2.496 2.256zm9.301-3.216h2.896v1.152h-2.768v7.2h-1.392v-7.12c0-.816.416-1.232 1.264-1.232zm5.558-1.552h-1.376v-1.824h1.376zm0 9.904h-1.376v-8.352h1.376zm6.46-10.592h-2.16v2.24h1.808v1.152h-1.808v7.2h-1.376v-7.2h-1.632v-1.152h1.632v-2.224c0-.768.448-1.152 1.328-1.152h2.208zm3.51 9.6-3.472-7.36h1.52l1.216 2.736 1.36 3.2h.096l2.608-5.936h1.52l-3.472 7.376v2.416c0 .816-.4 1.232-1.216 1.232h-2.128v-1.136h1.968zm-185.8069 26.992-3.04-8.352h1.52l1.472 4.448.816 2.48h.096l.768-2.48 1.472-4.448h1.52l-2.976 8.352zm8.889-8.512c2.288 0 3.712 1.44 3.712 3.76 0 .32-.016.608-.048.864h-6.16v.48c0 1.472 1.008 2.448 2.544 2.448 1.168 0 2.064-.608 2.336-1.552h1.376c-.176.816-.592 1.456-1.28 1.952-.688.48-1.504.72-2.464.72-2.432 0-3.936-1.68-3.936-4.368s1.504-4.304 3.92-4.304zm-2.496 3.376v.224h4.832v-.32c0-1.296-.944-2.16-2.336-2.16-1.472 0-2.496.912-2.496 2.256zm9.3018-3.216h2.896v1.152h-2.768v7.2h-1.392v-7.12c0-.816.416-1.232 1.264-1.232zm5.5576-1.552h-1.376v-1.824h1.376zm0 9.904h-1.376v-8.352h1.376zm6.4602-10.592h-2.16v2.24h1.808v1.152h-1.808v7.2h-1.376v-7.2h-1.632v-1.152h1.632v-2.224c0-.768.448-1.152 1.328-1.152h2.208zm2.6654.688h-1.376v-1.824h1.376zm0 9.904h-1.376v-8.352h1.376zm8.0763-2.848h1.376c-.272 1.856-1.68 3.008-3.712 3.008-1.232 0-2.208-.384-2.912-1.168s-1.056-1.824-1.056-3.152c0-1.36.368-2.432 1.104-3.2s1.712-1.152 2.912-1.152c1.936 0 3.344 1.136 3.616 2.88h-1.376c-.272-1.136-1.152-1.712-2.304-1.712-1.488 0-2.528 1.072-2.528 2.608v1.264c0 1.488 1.008 2.48 2.528 2.48 1.232 0 2.144-.72 2.352-1.856zm2.3912.448c0-1.648 1.136-2.576 3.04-2.576h2.512v-.64c0-1.2-.624-1.792-1.888-1.792-1.232 0-1.904.592-1.952 1.552h-1.36c.08-1.664 1.36-2.656 3.392-2.656 1.104 0 1.968.368 2.4.816.208.224.384.48.512.784.256.592.272.944.272 1.328v4.56h1.232v1.024h-1.424c-.768 0-1.04-.32-1.088-.944l-.016-.432h-.096c-.368.944-1.488 1.536-2.848 1.536-1.68 0-2.688-1.008-2.688-2.56zm1.424-.352v.512c0 .832.624 1.28 1.584 1.28 1.552 0 2.544-1.024 2.544-2.56v-.448h-2.384c-1.104 0-1.744.496-1.744 1.216zm9.7814-4.448v6.048h1.76v1.152h-1.92c-.816 0-1.216-.384-1.216-1.168v-6.032h-1.52v-1.152h1.52v-2.768h1.376v2.768h1.744v1.152zm4.8596-2.704h-1.376v-1.824h1.376zm0 9.904h-1.376v-8.352h1.376zm1.7723-4.176c0-1.344.368-2.4 1.104-3.168.736-.784 1.712-1.168 2.912-1.168s2.176.384 2.896 1.152c.736.768 1.104 1.824 1.104 3.184 0 2.64-1.488 4.336-4 4.336-1.248 0-2.224-.384-2.944-1.168s-1.072-1.84-1.072-3.168zm1.424-.608v1.296c0 1.584 1.12 2.496 2.592 2.496 1.488 0 2.592-.944 2.592-2.496v-1.296c0-1.536-1.072-2.56-2.592-2.56-.752 0-1.376.24-1.872.72-.48.464-.72 1.088-.72 1.84zm9.7731 4.784h-1.392v-8.352h1.216l.176 1.552h.112c.512-1.072 1.552-1.712 2.816-1.712 1.808 0 2.896 1.312 2.896 3.376v5.136h-1.392v-4.992c0-1.52-.656-2.288-1.968-2.288-1.472 0-2.464 1.168-2.464 2.912zm12.243 1.12h-5.488v-1.12h5.488zm2.414-1.12h-1.376v-11.728h1.376zm5.567-8.512c2.288 0 3.712 1.44 3.712 3.76 0 .32-.016.608-.048.864h-6.16v.48c0 1.472 1.008 2.448 2.544 2.448 1.168 0 2.064-.608 2.336-1.552h1.376c-.176.816-.592 1.456-1.28 1.952-.688.48-1.504.72-2.464.72-2.432 0-3.936-1.68-3.936-4.368s1.504-4.304 3.92-4.304zm-2.496 3.376v.224h4.832v-.32c0-1.296-.944-2.16-2.336-2.16-1.472 0-2.496.912-2.496 2.256zm9.655 5.136-3.04-8.352h1.52l1.472 4.448.816 2.48h.096l.768-2.48 1.472-4.448h1.52l-2.976 8.352zm8.889-8.512c2.288 0 3.712 1.44 3.712 3.76 0 .32-.016.608-.048.864h-6.16v.48c0 1.472 1.008 2.448 2.544 2.448 1.168 0 2.064-.608 2.336-1.552h1.376c-.176.816-.592 1.456-1.28 1.952-.688.48-1.504.72-2.464.72-2.432 0-3.936-1.68-3.936-4.368s1.504-4.304 3.92-4.304zm-2.496 3.376v.224h4.832v-.32c0-1.296-.944-2.16-2.336-2.16-1.472 0-2.496.912-2.496 2.256zm9.413 5.136h-1.376v-11.728h1.376zm-99.6897 26h-1.872l-4.1921-11.664h1.5841l1.952 5.568 1.5359 4.768h.0961l1.552-4.752 1.9839-5.584h1.552zm7.6592-8.512c2.288 0 3.712 1.44 3.712 3.76 0 .32-.016.608-.048.864h-6.16v.48c0 1.472 1.008 2.448 2.544 2.448 1.168 0 2.064-.608 2.336-1.552h1.376c-.176.816-.592 1.456-1.28 1.952-.688.48-1.504.72-2.464.72-2.432 0-3.936-1.68-3.936-4.368s1.504-4.304 3.92-4.304zm-2.496 3.376v.224h4.832v-.32c0-1.296-.944-2.16-2.336-2.16-1.472 0-2.496.912-2.496 2.256zm9.3017-3.216h2.896v1.152h-2.768v7.2h-1.392v-7.12c0-.816.416-1.232 1.264-1.232zm5.5577-1.552h-1.376v-1.824h1.376zm0 9.904h-1.376v-8.352h1.376zm6.4602-10.592h-2.16v2.24h1.808v1.152h-1.808v7.2h-1.376v-7.2h-1.632v-1.152h1.632v-2.224c0-.768.448-1.152 1.328-1.152h2.208zm2.6654.688h-1.376v-1.824h1.376zm0 9.904h-1.376v-8.352h1.376zm8.0763-2.848h1.376c-.272 1.856-1.68 3.008-3.712 3.008-1.2321 0-2.208-.384-2.9121-1.168-.704-.784-1.056-1.824-1.056-3.152 0-1.36.368-2.432 1.104-3.2s1.7121-1.152 2.9121-1.152c1.9359 0 3.3439 1.136 3.616 2.88h-1.376c-.272-1.136-1.1521-1.712-2.3041-1.712-1.4879 0-2.528 1.072-2.528 2.608v1.264c0 1.488 1.0081 2.48 2.528 2.48 1.2321 0 2.1441-.72 2.3521-1.856zm2.3912.448c0-1.648 1.136-2.576 3.04-2.576h2.512v-.64c0-1.2-.624-1.792-1.888-1.792-1.232 0-1.904.592-1.952 1.552h-1.36c.08-1.664 1.36-2.656 3.392-2.656 1.104 0 1.968.368 2.4.816.208.224.384.48.512.784.256.592.272.944.272 1.328v4.56h1.232v1.024h-1.424c-.768 0-1.04-.32-1.088-.944l-.016-.432h-.096c-.368.944-1.488 1.536-2.848 1.536-1.68 0-2.688-1.008-2.688-2.56zm1.424-.352v.512c0 .832.624 1.28 1.584 1.28 1.552 0 2.544-1.024 2.544-2.56v-.448h-2.384c-1.104 0-1.744.496-1.744 1.216zm9.7814-4.448v6.048h1.76v1.152h-1.92c-.816 0-1.216-.384-1.216-1.168v-6.032h-1.52v-1.152h1.52v-2.768h1.376v2.768h1.744v1.152zm4.8596-2.704h-1.376v-1.824h1.376zm0 9.904h-1.376v-8.352h1.376zm1.772-4.176c0-1.344.368-2.4 1.104-3.168.736-.784 1.712-1.168 2.912-1.168s2.176.384 2.896 1.152c.736.768 1.104 1.824 1.104 3.184 0 2.64-1.488 4.336-4 4.336-1.248 0-2.224-.384-2.944-1.168s-1.072-1.84-1.072-3.168zm1.424-.608v1.296c0 1.584 1.12 2.496 2.592 2.496 1.488 0 2.592-.944 2.592-2.496v-1.296c0-1.536-1.072-2.56-2.592-2.56-.752 0-1.376.24-1.872.72-.48.464-.72 1.088-.72 1.84zm9.774 4.784h-1.392v-8.352h1.216l.176 1.552h.112c.512-1.072 1.552-1.712 2.816-1.712 1.808 0 2.896 1.312 2.896 3.376v5.136h-1.392v-4.992c0-1.52-.656-2.288-1.968-2.288-1.472 0-2.464 1.168-2.464 2.912zm15.362 0h-6.96v-11.664h1.456v10.336h5.504zm4.619-8.512c2.288 0 3.712 1.44 3.712 3.76 0 .32-.016.608-.048.864h-6.16v.48c0 1.472 1.008 2.448 2.544 2.448 1.168 0 2.064-.608 2.336-1.552h1.376c-.176.816-.592 1.456-1.28 1.952-.688.48-1.504.72-2.464.72-2.432 0-3.936-1.68-3.936-4.368s1.504-4.304 3.92-4.304zm-2.496 3.376v.224h4.832v-.32c0-1.296-.944-2.16-2.336-2.16-1.472 0-2.496.912-2.496 2.256zm9.654 5.136-3.04-8.352h1.52l1.472 4.448.816 2.48h.096l.768-2.48 1.472-4.448h1.52l-2.976 8.352zm8.889-8.512c2.288 0 3.712 1.44 3.712 3.76 0 .32-.016.608-.048.864h-6.16v.48c0 1.472 1.008 2.448 2.544 2.448 1.168 0 2.064-.608 2.336-1.552h1.376c-.176.816-.592 1.456-1.28 1.952-.688.48-1.504.72-2.464.72-2.432 0-3.936-1.68-3.936-4.368s1.504-4.304 3.92-4.304zm-2.496 3.376v.224h4.832v-.32c0-1.296-.944-2.16-2.336-2.16-1.472 0-2.496.912-2.496 2.256zm9.414 5.136h-1.376v-11.728h1.376z" fill="#003f7a"/><path d="m644 41v282" stroke="#fff" stroke-opacity=".1"/><rect fill="#fff" fill-opacity=".16" height="32" rx="16" width="32" x="596" y="64"/><path d="m616.815 72.5926h-6.667c-.815 0-1.481.6667-1.481 1.4815v8.8889c0 .8148.666 1.4814 1.481 1.4814h6.667c.815 0 1.481-.6666 1.481-1.4814v-8.8889c0-.8148-.666-1.4815-1.481-1.4815zm0 10.3704h-6.667v-8.8889h6.667zm-11.111-.7408v-1.4815h1.481v1.4815zm0-4.0741h1.481v1.4815h-1.481zm5.185 7.7778h1.481v1.4815h-1.481zm-5.185-1.1111v-1.4815h1.481v1.4815zm1.481 2.5926c-.815 0-1.481-.6667-1.481-1.4815h1.481zm2.593 0h-1.482v-1.4815h1.482zm3.703 0v-1.4815h1.482c0 .8148-.667 1.4815-1.482 1.4815zm-6.296-11.8518v1.4814h-1.481c0-.8148.666-1.4814 1.481-1.4814z" fill="#f9fafb"/></g></svg>