<svg width="644" height="323" viewBox="0 0 644 323" fill="none" xmlns="http://www.w3.org/2000/svg">
<g clip-path="url(#clip0_394_6466)">
<rect width="644" height="323" rx="8" fill="#111121"/>
<g filter="url(#filter0_b_394_6466)">
<mask id="path-2-inside-1_394_6466" fill="white">
<path d="M0 0H644V41H0V0Z"/>
</mask>
<path d="M0 0H644V41H0V0Z" fill="#F5F5F5"/>
<path d="M644 40.5H0V41.5H644V40.5Z" fill="white" fill-opacity="0.12" mask="url(#path-2-inside-1_394_6466)"/>
<circle cx="30" cy="20.5" r="5.75" fill="#FF6058" stroke="#E14942" stroke-width="0.5"/>
<circle cx="50" cy="20.5" r="5.75" fill="#FFC130" stroke="#E1A325" stroke-width="0.5"/>
<circle cx="70" cy="20.5" r="5.75" fill="#27CA40" stroke="#3EAF3F" stroke-width="0.5"/>
</g>
<rect x="0.5" y="41.5" width="643" height="281" fill="white"/>
<rect x="0.5" y="41.5" width="643" height="281" fill="url(#paint0_linear_394_6466)" fill-opacity="0.08"/>
<rect x="0.5" y="41.5" width="643" height="281" stroke="#DADCE0"/>
<path d="M26.456 79.92V81.44L20.328 77.872V76.784L26.456 73.44V74.976L21.672 77.296V77.408L24.2 78.704L26.456 79.92ZM83.621 102.256H77.653V100.96H83.621V102.256ZM83.621 105.536H77.653V104.256H83.621V105.536ZM81.9335 128.256H75.9655V126.96H81.9335V128.256ZM81.9335 131.536H75.9655V130.256H81.9335V131.536ZM116.849 154.256H110.881V152.96H116.849V154.256ZM116.849 157.536H110.881V156.256H116.849V157.536ZM118.398 155.888V154.896C119.102 154.896 119.454 154.496 119.454 153.712V148.592C119.454 147.888 119.838 147.504 120.526 147.504H122.238V148.384H120.462V153.68C120.462 154.656 119.95 155.28 119.294 155.344V155.392C119.95 155.504 120.462 156.144 120.462 157.104V162.576H122.238V163.44H120.526C119.806 163.44 119.454 163.072 119.454 162.352V157.056C119.454 156.24 119.022 155.888 118.398 155.888ZM206.786 154.896V155.888C206.162 155.888 205.714 156.24 205.714 157.056V162.352C205.714 163.072 205.362 163.44 204.642 163.44H202.946V162.576H204.722V157.104C204.722 156.144 205.234 155.504 205.89 155.392V155.344C205.234 155.28 204.722 154.656 204.722 153.68V148.384H202.946V147.504H204.642C205.362 147.504 205.714 147.872 205.714 148.592V153.712C205.714 154.416 206.066 154.896 206.786 154.896ZM126.873 180.256H120.905V178.96H126.873V180.256ZM126.873 183.536H120.905V182.256H126.873V183.536ZM128.422 181.888V180.896C129.126 180.896 129.478 180.496 129.478 179.712V174.592C129.478 173.888 129.862 173.504 130.55 173.504H132.262V174.384H130.486V179.68C130.486 180.656 129.974 181.28 129.318 181.344V181.392C129.974 181.504 130.486 182.144 130.486 183.104V188.576H132.262V189.44H130.55C129.83 189.44 129.478 189.072 129.478 188.352V183.056C129.478 182.24 129.046 181.888 128.422 181.888ZM226.835 180.896V181.888C226.211 181.888 225.763 182.24 225.763 183.056V188.352C225.763 189.072 225.411 189.44 224.691 189.44H222.995V188.576H224.771V183.104C224.771 182.144 225.283 181.504 225.939 181.392V181.344C225.283 181.28 224.771 180.656 224.771 179.68V174.384H222.995V173.504H224.691C225.411 173.504 225.763 173.872 225.763 174.592V179.712C225.763 180.416 226.115 180.896 226.835 180.896ZM153.797 206.256H147.829V204.96H153.797V206.256ZM153.797 209.536H147.829V208.256H153.797V209.536ZM155.346 207.888V206.896C156.05 206.896 156.402 206.496 156.402 205.712V200.592C156.402 199.888 156.786 199.504 157.474 199.504H159.186V200.384H157.41V205.68C157.41 206.656 156.898 207.28 156.242 207.344V207.392C156.898 207.504 157.41 208.144 157.41 209.104V214.576H159.186V215.44H157.474C156.754 215.44 156.402 215.072 156.402 214.352V209.056C156.402 208.24 155.97 207.888 155.346 207.888ZM161.191 238H159.399V235.984H161.191V238ZM33.4831 258.896V259.888C32.8591 259.888 32.4111 260.24 32.4111 261.056V266.352C32.4111 267.072 32.0591 267.44 31.3391 267.44H29.6431V266.576H31.4191V261.104C31.4191 260.144 31.9311 259.504 32.5871 259.392V259.344C31.9311 259.28 31.4191 258.656 31.4191 257.68V252.384H29.6431V251.504H31.3391C32.0591 251.504 32.4111 251.872 32.4111 252.592V257.712C32.4111 258.416 32.7631 258.896 33.4831 258.896ZM20.472 290H19.464L24.104 278.336H25.128L20.472 290ZM32.8101 285.872L26.6661 289.44V287.92L28.9221 286.704L31.4661 285.408V285.296L26.6661 282.976V281.44L32.8101 284.784V285.872Z" fill="#8AB0CC"/>
<path d="M30.6114 82H29.1554V70.336H34.2274C36.6594 70.336 37.8754 71.712 37.8754 74.016C37.8754 76.384 36.5954 77.744 34.2274 77.744H30.6114V82ZM30.6114 71.68V76.464H34.1634C35.5554 76.464 36.3394 75.744 36.3394 74.592V73.424C36.3394 72.32 35.5554 71.68 34.3394 71.68H30.6114ZM40.6723 73.648H43.5683V74.8H40.8003V82H39.4083V74.88C39.4083 74.064 39.8243 73.648 40.6723 73.648ZM43.7753 77.824C43.7753 76.48 44.1433 75.424 44.8793 74.656C45.6153 73.872 46.5913 73.488 47.7913 73.488C48.9913 73.488 49.9673 73.872 50.6873 74.64C51.4233 75.408 51.7913 76.464 51.7913 77.824C51.7913 80.464 50.3033 82.16 47.7913 82.16C46.5433 82.16 45.5673 81.776 44.8473 80.992C44.1273 80.208 43.7753 79.152 43.7753 77.824ZM45.1993 77.216V78.512C45.1993 80.096 46.3193 81.008 47.7913 81.008C49.2793 81.008 50.3833 80.064 50.3833 78.512V77.216C50.3833 75.68 49.3113 74.656 47.7913 74.656C47.0393 74.656 46.4153 74.896 45.9193 75.376C45.4393 75.84 45.1993 76.464 45.1993 77.216ZM53.049 77.824C53.049 76.48 53.417 75.424 54.153 74.656C54.889 73.872 55.865 73.488 57.065 73.488C58.265 73.488 59.241 73.872 59.961 74.64C60.697 75.408 61.065 76.464 61.065 77.824C61.065 80.464 59.577 82.16 57.065 82.16C55.817 82.16 54.841 81.776 54.121 80.992C53.401 80.208 53.049 79.152 53.049 77.824ZM54.473 77.216V78.512C54.473 80.096 55.593 81.008 57.065 81.008C58.553 81.008 59.657 80.064 59.657 78.512V77.216C59.657 75.68 58.585 74.656 57.065 74.656C56.313 74.656 55.689 74.896 55.193 75.376C54.713 75.84 54.473 76.464 54.473 77.216ZM66.8545 71.408H64.6945V73.648H66.5025V74.8H64.6945V82H63.3185V74.8H61.6865V73.648H63.3185V71.424C63.3185 70.656 63.7665 70.272 64.6465 70.272H66.8545V71.408ZM68.8959 80.592C67.9519 79.536 67.4719 78.064 67.4719 76.176C67.4719 74.288 67.9519 72.816 68.9119 71.776C69.8719 70.72 71.2159 70.192 72.9279 70.192C74.6399 70.192 75.9839 70.72 76.9439 71.776C77.9039 72.816 78.3839 74.288 78.3839 76.176C78.3839 78.064 77.9039 79.536 76.9439 80.592C75.9999 81.632 74.6559 82.16 72.9279 82.16C71.1999 82.16 69.8559 81.632 68.8959 80.592ZM69.0079 75.344V76.976C69.0079 79.408 70.5439 80.848 72.9279 80.848C75.4079 80.848 76.8479 79.344 76.8479 76.976V75.344C76.8479 74.144 76.4959 73.2 75.7759 72.528C75.0719 71.84 74.1279 71.504 72.9279 71.504C70.4479 71.504 69.0079 72.992 69.0079 75.344ZM84.1832 71.408H82.0232V73.648H83.8312V74.8H82.0232V82H80.6472V74.8H79.0152V73.648H80.6472V71.424C80.6472 70.656 81.0952 70.272 81.9752 70.272H84.1832V71.408ZM87.1526 82H85.6966V70.336H90.7686C93.2006 70.336 94.4166 71.712 94.4166 74.016C94.4166 76.384 93.1366 77.744 90.7686 77.744H87.1526V82ZM87.1526 71.68V76.464H90.7046C92.0966 76.464 92.8806 75.744 92.8806 74.592V73.424C92.8806 72.32 92.0966 71.68 90.8806 71.68H87.1526ZM95.058 79.6C95.058 77.952 96.194 77.024 98.098 77.024H100.61V76.384C100.61 75.184 99.986 74.592 98.722 74.592C97.49 74.592 96.818 75.184 96.77 76.144H95.41C95.49 74.48 96.77 73.488 98.802 73.488C99.906 73.488 100.77 73.856 101.202 74.304C101.41 74.528 101.586 74.784 101.714 75.088C101.97 75.68 101.986 76.032 101.986 76.416V80.976H103.218V82H101.794C101.026 82 100.754 81.68 100.706 81.056L100.69 80.624H100.594C100.226 81.568 99.106 82.16 97.746 82.16C96.066 82.16 95.058 81.152 95.058 79.6ZM96.482 79.248V79.76C96.482 80.592 97.106 81.04 98.066 81.04C99.618 81.04 100.61 80.016 100.61 78.48V78.032H98.226C97.122 78.032 96.482 78.528 96.482 79.248ZM103.925 79.472H105.301C105.301 80.448 106.101 81.072 107.333 81.072C108.501 81.072 109.205 80.56 109.205 79.68C109.205 79.056 108.837 78.672 108.101 78.528L106.309 78.192C104.821 77.92 104.085 77.184 104.085 75.984C104.085 74.432 105.317 73.488 107.237 73.488C109.221 73.488 110.421 74.496 110.437 76.032H109.061C109.029 75.056 108.421 74.56 107.237 74.56C106.101 74.56 105.477 75.056 105.477 75.84C105.477 76.288 105.669 76.608 106.005 76.784C106.341 76.928 106.485 76.976 106.821 77.04L108.469 77.344C109.925 77.6 110.661 78.352 110.661 79.6C110.661 81.2 109.365 82.16 107.333 82.16C105.221 82.16 103.925 81.088 103.925 79.472ZM111.668 79.472H113.044C113.044 80.448 113.844 81.072 115.076 81.072C116.244 81.072 116.948 80.56 116.948 79.68C116.948 79.056 116.58 78.672 115.844 78.528L114.052 78.192C112.564 77.92 111.828 77.184 111.828 75.984C111.828 74.432 113.06 73.488 114.98 73.488C116.964 73.488 118.164 74.496 118.18 76.032H116.804C116.772 75.056 116.164 74.56 114.98 74.56C113.844 74.56 113.22 75.056 113.22 75.84C113.22 76.288 113.412 76.608 113.748 76.784C114.084 76.928 114.228 76.976 114.564 77.04L116.212 77.344C117.668 77.6 118.404 78.352 118.404 79.6C118.404 81.2 117.108 82.16 115.076 82.16C112.964 82.16 111.668 81.088 111.668 79.472ZM121.522 84.672H120.13V73.648H121.378L121.522 75.12H121.618C122.178 74.08 123.25 73.488 124.61 73.488C126.786 73.488 128.082 75.056 128.082 77.76C128.082 80.496 126.786 82.048 124.61 82.048C123.202 82.048 122.146 81.44 121.618 80.416H121.522V84.672ZM124.226 80.88C125.714 80.88 126.658 80 126.658 78.608V76.928C126.658 75.536 125.714 74.64 124.226 74.64C122.61 74.64 121.522 75.696 121.522 77.248V78.288C121.522 79.84 122.61 80.88 124.226 80.88ZM129.325 77.824C129.325 76.48 129.693 75.424 130.429 74.656C131.165 73.872 132.141 73.488 133.341 73.488C134.541 73.488 135.517 73.872 136.237 74.64C136.973 75.408 137.341 76.464 137.341 77.824C137.341 80.464 135.853 82.16 133.341 82.16C132.093 82.16 131.117 81.776 130.397 80.992C129.677 80.208 129.325 79.152 129.325 77.824ZM130.749 77.216V78.512C130.749 80.096 131.869 81.008 133.341 81.008C134.829 81.008 135.933 80.064 135.933 78.512V77.216C135.933 75.68 134.861 74.656 133.341 74.656C132.589 74.656 131.965 74.896 131.469 75.376C130.989 75.84 130.749 76.464 130.749 77.216ZM140.395 73.648H143.291V74.8H140.523V82H139.131V74.88C139.131 74.064 139.547 73.648 140.395 73.648ZM146.476 74.8V80.848H148.236V82H146.316C145.5 82 145.1 81.616 145.1 80.832V74.8H143.58V73.648H145.1V70.88H146.476V73.648H148.22V74.8H146.476ZM86.9143 98.432L86.5463 101.008H85.9703L85.6023 98.432V96.336H86.9143V98.432ZM89.4903 98.432L89.1383 101.008H88.5463L88.1783 98.432V96.336H89.4903V98.432ZM90.7305 105.6C90.7305 103.952 91.8665 103.024 93.7705 103.024H96.2825V102.384C96.2825 101.184 95.6585 100.592 94.3945 100.592C93.1625 100.592 92.4905 101.184 92.4425 102.144H91.0825C91.1625 100.48 92.4425 99.488 94.4745 99.488C95.5785 99.488 96.4425 99.856 96.8745 100.304C97.0825 100.528 97.2585 100.784 97.3865 101.088C97.6425 101.68 97.6585 102.032 97.6585 102.416V106.976H98.8905V108H97.4665C96.6985 108 96.4265 107.68 96.3785 107.056L96.3625 106.624H96.2665C95.8985 107.568 94.7785 108.16 93.4185 108.16C91.7385 108.16 90.7305 107.152 90.7305 105.6ZM92.1545 105.248V105.76C92.1545 106.592 92.7785 107.04 93.7385 107.04C95.2905 107.04 96.2825 106.016 96.2825 104.48V104.032H93.8985C92.7945 104.032 92.1545 104.528 92.1545 105.248ZM101.71 110.672H100.318V99.648H101.566L101.71 101.12H101.806C102.366 100.08 103.438 99.488 104.798 99.488C106.974 99.488 108.27 101.056 108.27 103.76C108.27 106.496 106.974 108.048 104.798 108.048C103.39 108.048 102.334 107.44 101.806 106.416H101.71V110.672ZM104.414 106.88C105.902 106.88 106.846 106 106.846 104.608V102.928C106.846 101.536 105.902 100.64 104.414 100.64C102.798 100.64 101.71 101.696 101.71 103.248V104.288C101.71 105.84 102.798 106.88 104.414 106.88ZM111.436 110.672H110.044V99.648H111.292L111.436 101.12H111.532C112.092 100.08 113.164 99.488 114.524 99.488C116.7 99.488 117.996 101.056 117.996 103.76C117.996 106.496 116.7 108.048 114.524 108.048C113.116 108.048 112.06 107.44 111.532 106.416H111.436V110.672ZM114.14 106.88C115.628 106.88 116.572 106 116.572 104.608V102.928C116.572 101.536 115.628 100.64 114.14 100.64C112.524 100.64 111.436 101.696 111.436 103.248V104.288C111.436 105.84 112.524 106.88 114.14 106.88ZM123.835 109.12H118.347V108H123.835V109.12ZM124.201 102.272C124.201 100.336 124.697 98.848 125.705 97.792C126.713 96.72 128.025 96.192 129.673 96.192C130.953 96.192 132.041 96.528 132.953 97.184C133.865 97.84 134.409 98.688 134.617 99.76H133.097C132.793 98.4 131.449 97.504 129.705 97.504C128.537 97.504 127.577 97.856 126.841 98.56C126.105 99.264 125.737 100.192 125.737 101.344V103.168C125.737 104.272 126.089 105.168 126.777 105.856C127.481 106.544 128.393 106.896 129.529 106.896C130.633 106.896 131.545 106.544 132.233 105.856C132.937 105.152 133.289 104.224 133.305 103.072H129.145V101.824H134.953V108H133.753L133.609 105.968H133.497C132.665 107.424 131.161 108.16 129.321 108.16C127.721 108.16 126.473 107.632 125.561 106.576C124.649 105.52 124.201 104.08 124.201 102.272ZM142.95 108H137.558V96.336H143.078C145.142 96.336 146.23 97.456 146.23 99.296C146.23 100.528 145.638 101.52 144.566 101.92V102.048C145.878 102.384 146.534 103.344 146.534 104.912C146.534 106.784 145.19 108 142.95 108ZM138.998 97.568V101.456H142.982C144.07 101.456 144.742 100.864 144.742 99.904V99.088C144.742 98.144 144.102 97.568 142.966 97.568H138.998ZM138.998 102.672V106.768H142.854C144.15 106.768 144.998 106.144 144.998 105.168V104.32C144.998 103.28 144.262 102.672 143.094 102.672H138.998ZM155.62 108H154.036L151.284 103.872L149.828 105.344V108H148.436V96.272H149.828V103.616L153.684 99.648H155.46L152.244 102.912L155.62 108ZM156.271 96.336H164.879V97.504L158.143 106.672H164.799V108H156.271V106.832L163.007 97.664H156.271V96.336ZM168.896 99.52H166V98.432H166.448C167.936 98.432 168.944 97.664 168.992 96.464H170.288V108H168.896V99.52ZM182.913 108H181.201L177.553 102.576L175.313 105.264V108H173.857V96.336H175.313V103.28L181.041 96.336H182.753L178.513 101.424L182.913 108ZM185.423 108H184.047V96.272H185.423V108ZM192.667 108H190.795L186.603 96.336H188.187L190.139 101.904L191.675 106.672H191.771L193.323 101.92L195.307 96.336H196.859L192.667 108ZM197.863 103.68V96.336H199.303V103.552C199.303 105.6 200.551 106.816 202.535 106.816C204.519 106.816 205.783 105.6 205.783 103.552V96.336H207.207V103.68C207.207 105.04 206.791 106.128 205.959 106.944C205.127 107.76 203.991 108.16 202.535 108.16C201.063 108.16 199.911 107.76 199.095 106.944C198.279 106.128 197.863 105.04 197.863 103.68ZM212.605 108.16C210.429 108.16 209.133 106.592 209.133 103.888C209.133 101.152 210.429 99.6 212.605 99.6C214.013 99.6 215.069 100.208 215.597 101.232H215.693V96.272H217.085V108H215.837L215.693 106.544H215.597C215.021 107.616 214.029 108.16 212.605 108.16ZM212.989 107.008C214.605 107.008 215.693 105.952 215.693 104.4V103.36C215.693 101.808 214.605 100.768 212.989 100.768C211.501 100.768 210.557 101.648 210.557 103.04V104.72C210.557 106.112 211.501 107.008 212.989 107.008ZM219.82 99.824H218.62V96.464H226.46V97.456C225.356 98.944 224.38 100.656 223.532 102.56C222.684 104.464 222.092 106.288 221.756 108H220.236C220.54 106.368 221.084 104.624 221.9 102.784C222.716 100.928 223.676 99.232 224.748 97.712H219.82V99.824ZM226.666 96.336H235.37V97.648H231.754V108H230.314V97.648H226.666V96.336ZM236.709 98.096V96.272H238.069V98.096H236.709ZM236.709 109.552V99.648H238.069V109.44C238.069 109.696 238.053 109.84 237.909 110.16C237.781 110.48 237.397 110.672 236.821 110.672H234.869V109.552H236.709ZM243.633 99.488C245.921 99.488 247.345 100.928 247.345 103.248C247.345 103.568 247.329 103.856 247.297 104.112H241.137V104.592C241.137 106.064 242.145 107.04 243.681 107.04C244.849 107.04 245.745 106.432 246.017 105.488H247.393C247.217 106.304 246.801 106.944 246.113 107.44C245.425 107.92 244.609 108.16 243.649 108.16C241.217 108.16 239.713 106.48 239.713 103.792C239.713 101.104 241.217 99.488 243.633 99.488ZM241.137 102.864V103.088H245.969V102.768C245.969 101.472 245.025 100.608 243.633 100.608C242.161 100.608 241.137 101.52 241.137 102.864ZM250.839 108H249.399V96.336H251.351L255.015 104.768H255.111L258.791 96.336H260.727V108H259.303V101.68L259.431 98.256H259.335L255.063 107.792L250.807 98.256H250.695L250.839 101.696V108ZM263.913 108H262.249L265.961 102.096L262.377 96.336H264.041L265.561 98.784L266.969 101.216H267.065L268.601 98.672L270.025 96.336H271.689L268.025 102.16L271.689 108H270.009L268.617 105.808L267.033 103.168H266.937L265.241 105.936L263.913 108ZM282.049 108H280.337L276.689 102.576L274.449 105.264V108H272.993V96.336H274.449V103.28L280.177 96.336H281.889L277.649 101.424L282.049 108ZM284.559 108H283.183V96.272H284.559V108ZM286.316 105.6C286.316 103.952 287.452 103.024 289.356 103.024H291.868V102.384C291.868 101.184 291.244 100.592 289.98 100.592C288.748 100.592 288.076 101.184 288.028 102.144H286.668C286.748 100.48 288.028 99.488 290.06 99.488C291.164 99.488 292.028 99.856 292.46 100.304C292.668 100.528 292.844 100.784 292.972 101.088C293.228 101.68 293.244 102.032 293.244 102.416V106.976H294.476V108H293.052C292.284 108 292.012 107.68 291.964 107.056L291.948 106.624H291.852C291.484 107.568 290.364 108.16 289.004 108.16C287.324 108.16 286.316 107.152 286.316 105.6ZM287.74 105.248V105.76C287.74 106.592 288.364 107.04 289.324 107.04C290.876 107.04 291.868 106.016 291.868 104.48V104.032H289.484C288.38 104.032 287.74 104.528 287.74 105.248ZM296.031 103.68V96.336H297.471V103.552C297.471 105.6 298.719 106.816 300.703 106.816C302.687 106.816 303.951 105.6 303.951 103.552V96.336H305.375V103.68C305.375 105.04 304.959 106.128 304.127 106.944C303.295 107.76 302.159 108.16 300.703 108.16C299.231 108.16 298.079 107.76 297.263 106.944C296.447 106.128 296.031 105.04 296.031 103.68ZM310.773 108.16C308.597 108.16 307.301 106.592 307.301 103.888C307.301 101.152 308.597 99.6 310.773 99.6C312.181 99.6 313.237 100.208 313.765 101.232H313.861V96.272H315.253V108H314.005L313.861 106.544H313.765C313.189 107.616 312.197 108.16 310.773 108.16ZM311.157 107.008C312.773 107.008 313.861 105.952 313.861 104.4V103.36C313.861 101.808 312.773 100.768 311.157 100.768C309.669 100.768 308.725 101.648 308.725 103.04V104.72C308.725 106.112 309.669 107.008 311.157 107.008ZM319.396 108H317.94V96.336H325.572V97.664H319.396V102.128H324.932V103.392H319.396V108ZM326.178 96.336H334.882V97.648H331.266V108H329.826V97.648H326.178V96.336ZM336.86 98.432L336.492 101.008H335.916L335.548 98.432V96.336H336.86V98.432ZM339.436 98.432L339.084 101.008H338.492L338.124 98.432V96.336H339.436V98.432ZM85.2268 124.432L84.8588 127.008H84.2828L83.9148 124.432V122.336H85.2268V124.432ZM87.8028 124.432L87.4508 127.008H86.8588L86.4908 124.432V122.336H87.8028V124.432ZM91.395 134L88.355 125.648H89.875L91.347 130.096L92.163 132.576H92.259L93.027 130.096L94.499 125.648H96.019L93.043 134H91.395ZM96.364 129.824C96.364 128.48 96.732 127.424 97.468 126.656C98.204 125.872 99.18 125.488 100.38 125.488C101.58 125.488 102.556 125.872 103.276 126.64C104.012 127.408 104.38 128.464 104.38 129.824C104.38 132.464 102.892 134.16 100.38 134.16C99.132 134.16 98.156 133.776 97.436 132.992C96.716 132.208 96.364 131.152 96.364 129.824ZM97.788 129.216V130.512C97.788 132.096 98.908 133.008 100.38 133.008C101.868 133.008 102.972 132.064 102.972 130.512V129.216C102.972 127.68 101.9 126.656 100.38 126.656C99.628 126.656 99.004 126.896 98.508 127.376C98.028 127.84 97.788 128.464 97.788 129.216ZM107.881 126.8V132.848H109.641V134H107.721C106.905 134 106.505 133.616 106.505 132.832V126.8H104.985V125.648H106.505V122.88H107.881V125.648H109.625V126.8H107.881ZM114.503 125.488C116.791 125.488 118.215 126.928 118.215 129.248C118.215 129.568 118.199 129.856 118.167 130.112H112.007V130.592C112.007 132.064 113.015 133.04 114.551 133.04C115.719 133.04 116.615 132.432 116.887 131.488H118.263C118.087 132.304 117.671 132.944 116.983 133.44C116.295 133.92 115.479 134.16 114.519 134.16C112.087 134.16 110.583 132.48 110.583 129.792C110.583 127.104 112.087 125.488 114.503 125.488ZM112.007 128.864V129.088H116.839V128.768C116.839 127.472 115.895 126.608 114.503 126.608C113.031 126.608 112.007 127.52 112.007 128.864ZM124.109 135.12H118.621V134H124.109V135.12ZM127.419 125.52H124.523V124.432H124.971C126.459 124.432 127.467 123.664 127.515 122.464H128.811V134H127.419V125.52ZM132.971 124.432L132.603 127.008H132.027L131.659 124.432V122.336H132.971V124.432ZM135.547 124.432L135.195 127.008H134.603L134.235 124.432V122.336H135.547V124.432ZM168.281 238H163.561V226.336H168.281C171.753 226.336 173.177 228.336 173.177 232.176C173.177 236.032 171.737 238 168.281 238ZM165.017 227.664V236.672H168.265C170.569 236.672 171.641 235.616 171.641 233.136V231.216C171.641 228.704 170.521 227.664 168.265 227.664H165.017ZM178.39 229.488C180.678 229.488 182.102 230.928 182.102 233.248C182.102 233.568 182.086 233.856 182.054 234.112H175.894V234.592C175.894 236.064 176.902 237.04 178.438 237.04C179.606 237.04 180.502 236.432 180.774 235.488H182.15C181.974 236.304 181.558 236.944 180.87 237.44C180.182 237.92 179.366 238.16 178.406 238.16C175.974 238.16 174.47 236.48 174.47 233.792C174.47 231.104 175.974 229.488 178.39 229.488ZM175.894 232.864V233.088H180.726V232.768C180.726 231.472 179.782 230.608 178.39 230.608C176.918 230.608 175.894 231.52 175.894 232.864ZM185.548 238L182.508 229.648H184.028L185.5 234.096L186.316 236.576H186.412L187.18 234.096L188.652 229.648H190.172L187.196 238H185.548ZM192.612 228.096H191.236V226.272H192.612V228.096ZM192.612 238H191.236V229.648H192.612V238ZM200.689 235.152H202.065C201.793 237.008 200.385 238.16 198.353 238.16C197.121 238.16 196.145 237.776 195.441 236.992C194.737 236.208 194.385 235.168 194.385 233.84C194.385 232.48 194.753 231.408 195.489 230.64C196.225 229.872 197.201 229.488 198.401 229.488C200.337 229.488 201.745 230.624 202.017 232.368H200.641C200.369 231.232 199.489 230.656 198.337 230.656C196.849 230.656 195.809 231.728 195.809 233.264V234.528C195.809 236.016 196.817 237.008 198.337 237.008C199.569 237.008 200.481 236.288 200.689 235.152ZM207.016 229.488C209.304 229.488 210.728 230.928 210.728 233.248C210.728 233.568 210.712 233.856 210.68 234.112H204.52V234.592C204.52 236.064 205.528 237.04 207.064 237.04C208.232 237.04 209.128 236.432 209.4 235.488H210.776C210.6 236.304 210.184 236.944 209.496 237.44C208.808 237.92 207.992 238.16 207.032 238.16C204.6 238.16 203.096 236.48 203.096 233.792C203.096 231.104 204.6 229.488 207.016 229.488ZM204.52 232.864V233.088H209.352V232.768C209.352 231.472 208.408 230.608 207.016 230.608C205.544 230.608 204.52 231.52 204.52 232.864Z" fill="#AC7700"/>
<path d="M29.9311 105.6C29.9311 103.952 31.0671 103.024 32.9711 103.024H35.4831V102.384C35.4831 101.184 34.8591 100.592 33.5951 100.592C32.3631 100.592 31.6911 101.184 31.6431 102.144H30.2831C30.3631 100.48 31.6431 99.488 33.6751 99.488C34.7791 99.488 35.6431 99.856 36.0751 100.304C36.2831 100.528 36.4591 100.784 36.5871 101.088C36.8431 101.68 36.8591 102.032 36.8591 102.416V106.976H38.0911V108H36.6671C35.8991 108 35.6271 107.68 35.5791 107.056L35.5631 106.624H35.4671C35.0991 107.568 33.9791 108.16 32.6191 108.16C30.9391 108.16 29.9311 107.152 29.9311 105.6ZM31.3551 105.248V105.76C31.3551 106.592 31.9791 107.04 32.9391 107.04C34.4911 107.04 35.4831 106.016 35.4831 104.48V104.032H33.0991C31.9951 104.032 31.3551 104.528 31.3551 105.248ZM40.9102 110.672H39.5182V99.648H40.7662L40.9102 101.12H41.0062C41.5662 100.08 42.6382 99.488 43.9982 99.488C46.1742 99.488 47.4703 101.056 47.4703 103.76C47.4703 106.496 46.1742 108.048 43.9982 108.048C42.5902 108.048 41.5342 107.44 41.0062 106.416H40.9102V110.672ZM43.6142 106.88C45.1022 106.88 46.0462 106 46.0462 104.608V102.928C46.0462 101.536 45.1022 100.64 43.6142 100.64C41.9982 100.64 40.9102 101.696 40.9102 103.248V104.288C40.9102 105.84 41.9982 106.88 43.6142 106.88ZM50.6371 110.672H49.2451V99.648H50.4931L50.6371 101.12H50.7331C51.2931 100.08 52.3651 99.488 53.7251 99.488C55.9011 99.488 57.1971 101.056 57.1971 103.76C57.1971 106.496 55.9011 108.048 53.7251 108.048C52.3171 108.048 51.2611 107.44 50.7331 106.416H50.6371V110.672ZM53.3411 106.88C54.8291 106.88 55.7731 106 55.7731 104.608V102.928C55.7731 101.536 54.8291 100.64 53.3411 100.64C51.7251 100.64 50.6371 101.696 50.6371 103.248V104.288C50.6371 105.84 51.7251 106.88 53.3411 106.88ZM63.036 109.12H57.548V108H63.036V109.12ZM65.4499 98.096H64.0739V96.272H65.4499V98.096ZM65.4499 108H64.0739V99.648H65.4499V108ZM70.6941 108.16C68.5181 108.16 67.2221 106.592 67.2221 103.888C67.2221 101.152 68.5181 99.6 70.6941 99.6C72.1021 99.6 73.1581 100.208 73.6861 101.232H73.7821V96.272H75.1741V108H73.9261L73.7821 106.544H73.6861C73.1101 107.616 72.1181 108.16 70.6941 108.16ZM71.0781 107.008C72.6941 107.008 73.7821 105.952 73.7821 104.4V103.36C73.7821 101.808 72.6941 100.768 71.0781 100.768C69.5901 100.768 68.6461 101.648 68.6461 103.04V104.72C68.6461 106.112 69.5901 107.008 71.0781 107.008ZM29.9311 131.6C29.9311 129.952 31.0671 129.024 32.9711 129.024H35.4831V128.384C35.4831 127.184 34.8591 126.592 33.5951 126.592C32.3631 126.592 31.6911 127.184 31.6431 128.144H30.2831C30.3631 126.48 31.6431 125.488 33.6751 125.488C34.7791 125.488 35.6431 125.856 36.0751 126.304C36.2831 126.528 36.4591 126.784 36.5871 127.088C36.8431 127.68 36.8591 128.032 36.8591 128.416V132.976H38.0911V134H36.6671C35.8991 134 35.6271 133.68 35.5791 133.056L35.5631 132.624H35.4671C35.0991 133.568 33.9791 134.16 32.6191 134.16C30.9391 134.16 29.9311 133.152 29.9311 131.6ZM31.3551 131.248V131.76C31.3551 132.592 31.9791 133.04 32.9391 133.04C34.4911 133.04 35.4831 132.016 35.4831 130.48V130.032H33.0991C31.9951 130.032 31.3551 130.528 31.3551 131.248ZM45.1342 131.152H46.5103C46.2382 133.008 44.8302 134.16 42.7982 134.16C41.5662 134.16 40.5902 133.776 39.8862 132.992C39.1822 132.208 38.8302 131.168 38.8302 129.84C38.8302 128.48 39.1982 127.408 39.9342 126.64C40.6702 125.872 41.6462 125.488 42.8462 125.488C44.7822 125.488 46.1902 126.624 46.4622 128.368H45.0862C44.8142 127.232 43.9342 126.656 42.7822 126.656C41.2942 126.656 40.2542 127.728 40.2542 129.264V130.528C40.2542 132.016 41.2622 133.008 42.7822 133.008C44.0142 133.008 44.9262 132.288 45.1342 131.152ZM49.9415 126.8V132.848H51.7015V134H49.7815C48.9655 134 48.5655 133.616 48.5655 132.832V126.8H47.0455V125.648H48.5655V122.88H49.9415V125.648H51.6855V126.8H49.9415ZM54.8011 124.096H53.4251V122.272H54.8011V124.096ZM54.8011 134H53.4251V125.648H54.8011V134ZM56.5734 129.824C56.5734 128.48 56.9414 127.424 57.6774 126.656C58.4134 125.872 59.3894 125.488 60.5894 125.488C61.7894 125.488 62.7654 125.872 63.4854 126.64C64.2214 127.408 64.5894 128.464 64.5894 129.824C64.5894 132.464 63.1014 134.16 60.5894 134.16C59.3414 134.16 58.3654 133.776 57.6454 132.992C56.9254 132.208 56.5734 131.152 56.5734 129.824ZM57.9974 129.216V130.512C57.9974 132.096 59.1174 133.008 60.5894 133.008C62.0774 133.008 63.1814 132.064 63.1814 130.512V129.216C63.1814 127.68 62.1094 126.656 60.5894 126.656C59.8374 126.656 59.2134 126.896 58.7174 127.376C58.2374 127.84 57.9974 128.464 57.9974 129.216ZM67.7709 134H66.3789V125.648H67.5949L67.7709 127.2H67.8829C68.3949 126.128 69.4349 125.488 70.6989 125.488C72.5069 125.488 73.5949 126.8 73.5949 128.864V134H72.2029V129.008C72.2029 127.488 71.5469 126.72 70.2349 126.72C68.7629 126.72 67.7709 127.888 67.7709 129.632V134ZM29.9471 155.824C29.9471 154.48 30.3151 153.424 31.0511 152.656C31.7871 151.872 32.7631 151.488 33.9631 151.488C35.1631 151.488 36.1391 151.872 36.8591 152.64C37.5951 153.408 37.9631 154.464 37.9631 155.824C37.9631 158.464 36.4751 160.16 33.9631 160.16C32.7151 160.16 31.7391 159.776 31.0191 158.992C30.2991 158.208 29.9471 157.152 29.9471 155.824ZM31.3711 155.216V156.512C31.3711 158.096 32.4911 159.008 33.9631 159.008C35.4511 159.008 36.5551 158.064 36.5551 156.512V155.216C36.5551 153.68 35.4831 152.656 33.9631 152.656C33.2111 152.656 32.5871 152.896 32.0911 153.376C31.6111 153.84 31.3711 154.464 31.3711 155.216ZM41.1446 160H39.7526V151.648H40.9686L41.1446 153.2H41.2566C41.7686 152.128 42.8086 151.488 44.0726 151.488C45.8806 151.488 46.9686 152.8 46.9686 154.864V160H45.5766V155.008C45.5766 153.488 44.9206 152.72 43.6086 152.72C42.1366 152.72 41.1446 153.888 41.1446 155.632V160ZM48.6992 156.4H50.2032C50.2192 158.08 51.4352 158.976 53.3073 158.976C55.0512 158.976 56.1552 158.16 56.1552 156.816C56.1552 156.112 55.8993 155.616 55.4032 155.36C54.9072 155.088 54.7473 155.04 54.2993 154.928L52.2512 154.464L51.4992 154.288C51.3232 154.24 51.0512 154.128 50.6832 153.968C50.3312 153.792 50.0432 153.616 49.8352 153.424C49.4352 153.04 49.0192 152.304 49.0192 151.408C49.0192 150.4 49.3872 149.616 50.1392 149.04C50.8912 148.464 51.8672 148.176 53.0992 148.176C54.3632 148.176 55.3713 148.48 56.1392 149.072C56.9073 149.664 57.3073 150.496 57.3232 151.552H55.8352C55.7552 150.144 54.7153 149.36 53.0992 149.36C51.4992 149.36 50.5392 150.112 50.5392 151.264C50.5392 151.888 50.8112 152.352 51.3072 152.624C51.8192 152.88 52.1072 152.96 52.6192 153.072L54.8112 153.552C56.7312 153.968 57.6912 155.008 57.6912 156.672C57.6912 157.776 57.2913 158.624 56.4753 159.248C55.6753 159.856 54.6033 160.16 53.2592 160.16C51.7872 160.16 50.6512 159.808 49.8672 159.104C49.0832 158.384 48.6992 157.488 48.6992 156.4ZM65.322 151.648H66.714V160H65.53L65.338 158.448H65.21C64.762 159.488 63.674 160.16 62.378 160.16C60.65 160.16 59.61 159.008 59.61 156.976V151.648H60.986V156.784C60.986 158.256 61.61 158.992 62.842 158.992C64.362 158.992 65.322 157.792 65.322 156.016V151.648ZM74.7992 157.152H76.1752C75.9032 159.008 74.4952 160.16 72.4632 160.16C71.2312 160.16 70.2552 159.776 69.5512 158.992C68.8472 158.208 68.4952 157.168 68.4952 155.84C68.4952 154.48 68.8632 153.408 69.5992 152.64C70.3352 151.872 71.3112 151.488 72.5112 151.488C74.4472 151.488 75.8552 152.624 76.1272 154.368H74.7512C74.4792 153.232 73.5992 152.656 72.4472 152.656C70.9592 152.656 69.9192 153.728 69.9192 155.264V156.528C69.9192 158.016 70.9272 159.008 72.4472 159.008C73.6792 159.008 74.5912 158.288 74.7992 157.152ZM83.5105 157.152H84.8865C84.6145 159.008 83.2065 160.16 81.1745 160.16C79.9425 160.16 78.9665 159.776 78.2625 158.992C77.5585 158.208 77.2065 157.168 77.2065 155.84C77.2065 154.48 77.5745 153.408 78.3105 152.64C79.0465 151.872 80.0225 151.488 81.2225 151.488C83.1585 151.488 84.5665 152.624 84.8385 154.368H83.4625C83.1905 153.232 82.3105 152.656 81.1585 152.656C79.6705 152.656 78.6305 153.728 78.6305 155.264V156.528C78.6305 158.016 79.6385 159.008 81.1585 159.008C82.3905 159.008 83.3025 158.288 83.5105 157.152ZM89.8378 151.488C92.1258 151.488 93.5498 152.928 93.5498 155.248C93.5498 155.568 93.5338 155.856 93.5018 156.112H87.3418V156.592C87.3418 158.064 88.3498 159.04 89.8858 159.04C91.0538 159.04 91.9498 158.432 92.2218 157.488H93.5978C93.4218 158.304 93.0058 158.944 92.3178 159.44C91.6298 159.92 90.8138 160.16 89.8538 160.16C87.4218 160.16 85.9178 158.48 85.9178 155.792C85.9178 153.104 87.4218 151.488 89.8378 151.488ZM87.3418 154.864V155.088H92.1738V154.768C92.1738 153.472 91.2298 152.608 89.8378 152.608C88.3658 152.608 87.3418 153.52 87.3418 154.864ZM94.6595 157.472H96.0355C96.0355 158.448 96.8355 159.072 98.0675 159.072C99.2355 159.072 99.9395 158.56 99.9395 157.68C99.9395 157.056 99.5715 156.672 98.8355 156.528L97.0435 156.192C95.5555 155.92 94.8195 155.184 94.8195 153.984C94.8195 152.432 96.0515 151.488 97.9715 151.488C99.9555 151.488 101.156 152.496 101.172 154.032H99.7955C99.7635 153.056 99.1555 152.56 97.9715 152.56C96.8355 152.56 96.2115 153.056 96.2115 153.84C96.2115 154.288 96.4035 154.608 96.7395 154.784C97.0755 154.928 97.2195 154.976 97.5555 155.04L99.2035 155.344C100.66 155.6 101.396 156.352 101.396 157.6C101.396 159.2 100.1 160.16 98.0675 160.16C95.9555 160.16 94.6595 159.088 94.6595 157.472ZM102.402 157.472H103.778C103.778 158.448 104.578 159.072 105.81 159.072C106.978 159.072 107.682 158.56 107.682 157.68C107.682 157.056 107.314 156.672 106.578 156.528L104.786 156.192C103.298 155.92 102.562 155.184 102.562 153.984C102.562 152.432 103.794 151.488 105.714 151.488C107.698 151.488 108.898 152.496 108.914 154.032H107.538C107.506 153.056 106.898 152.56 105.714 152.56C104.578 152.56 103.954 153.056 103.954 153.84C103.954 154.288 104.146 154.608 104.482 154.784C104.818 154.928 104.962 154.976 105.298 155.04L106.946 155.344C108.402 155.6 109.138 156.352 109.138 157.6C109.138 159.2 107.842 160.16 105.81 160.16C103.698 160.16 102.402 159.088 102.402 157.472ZM123.021 155.824C123.021 154.48 123.389 153.424 124.125 152.656C124.861 151.872 125.837 151.488 127.037 151.488C128.237 151.488 129.213 151.872 129.933 152.64C130.669 153.408 131.037 154.464 131.037 155.824C131.037 158.464 129.549 160.16 127.037 160.16C125.789 160.16 124.813 159.776 124.093 158.992C123.373 158.208 123.021 157.152 123.021 155.824ZM124.445 155.216V156.512C124.445 158.096 125.565 159.008 127.037 159.008C128.525 159.008 129.629 158.064 129.629 156.512V155.216C129.629 153.68 128.557 152.656 127.037 152.656C126.285 152.656 125.661 152.896 125.165 153.376C124.685 153.84 124.445 154.464 124.445 155.216ZM134.218 160H132.826V151.648H134.042L134.218 153.2H134.33C134.842 152.128 135.882 151.488 137.146 151.488C138.954 151.488 140.042 152.8 140.042 154.864V160H138.65V155.008C138.65 153.488 137.994 152.72 136.682 152.72C135.21 152.72 134.218 153.888 134.218 155.632V160ZM141.773 156.4H143.277C143.293 158.08 144.509 158.976 146.381 158.976C148.125 158.976 149.229 158.16 149.229 156.816C149.229 156.112 148.973 155.616 148.477 155.36C147.981 155.088 147.821 155.04 147.373 154.928L145.325 154.464L144.573 154.288C144.397 154.24 144.125 154.128 143.757 153.968C143.405 153.792 143.117 153.616 142.909 153.424C142.509 153.04 142.093 152.304 142.093 151.408C142.093 150.4 142.461 149.616 143.213 149.04C143.965 148.464 144.941 148.176 146.173 148.176C147.437 148.176 148.445 148.48 149.213 149.072C149.981 149.664 150.381 150.496 150.397 151.552H148.909C148.829 150.144 147.789 149.36 146.173 149.36C144.573 149.36 143.613 150.112 143.613 151.264C143.613 151.888 143.885 152.352 144.381 152.624C144.893 152.88 145.181 152.96 145.693 153.072L147.885 153.552C149.805 153.968 150.765 155.008 150.765 156.672C150.765 157.776 150.365 158.624 149.549 159.248C148.749 159.856 147.677 160.16 146.333 160.16C144.861 160.16 143.725 159.808 142.941 159.104C142.157 158.384 141.773 157.488 141.773 156.4ZM158.396 151.648H159.788V160H158.604L158.412 158.448H158.284C157.836 159.488 156.748 160.16 155.452 160.16C153.724 160.16 152.684 159.008 152.684 156.976V151.648H154.06V156.784C154.06 158.256 154.684 158.992 155.916 158.992C157.436 158.992 158.396 157.792 158.396 156.016V151.648ZM167.873 157.152H169.249C168.977 159.008 167.569 160.16 165.537 160.16C164.305 160.16 163.329 159.776 162.625 158.992C161.921 158.208 161.569 157.168 161.569 155.84C161.569 154.48 161.937 153.408 162.673 152.64C163.409 151.872 164.385 151.488 165.585 151.488C167.521 151.488 168.929 152.624 169.201 154.368H167.825C167.553 153.232 166.673 152.656 165.521 152.656C164.033 152.656 162.993 153.728 162.993 155.264V156.528C162.993 158.016 164.001 159.008 165.521 159.008C166.753 159.008 167.665 158.288 167.873 157.152ZM176.584 157.152H177.96C177.688 159.008 176.28 160.16 174.248 160.16C173.016 160.16 172.04 159.776 171.336 158.992C170.632 158.208 170.28 157.168 170.28 155.84C170.28 154.48 170.648 153.408 171.384 152.64C172.12 151.872 173.096 151.488 174.296 151.488C176.232 151.488 177.64 152.624 177.912 154.368H176.536C176.264 153.232 175.384 152.656 174.232 152.656C172.744 152.656 171.704 153.728 171.704 155.264V156.528C171.704 158.016 172.712 159.008 174.232 159.008C175.464 159.008 176.376 158.288 176.584 157.152ZM182.912 151.488C185.2 151.488 186.624 152.928 186.624 155.248C186.624 155.568 186.608 155.856 186.576 156.112H180.416V156.592C180.416 158.064 181.424 159.04 182.96 159.04C184.128 159.04 185.024 158.432 185.296 157.488H186.672C186.496 158.304 186.08 158.944 185.392 159.44C184.704 159.92 183.888 160.16 182.928 160.16C180.496 160.16 178.992 158.48 178.992 155.792C178.992 153.104 180.496 151.488 182.912 151.488ZM180.416 154.864V155.088H185.248V154.768C185.248 153.472 184.304 152.608 182.912 152.608C181.44 152.608 180.416 153.52 180.416 154.864ZM187.733 157.472H189.109C189.109 158.448 189.909 159.072 191.141 159.072C192.309 159.072 193.013 158.56 193.013 157.68C193.013 157.056 192.645 156.672 191.909 156.528L190.117 156.192C188.629 155.92 187.893 155.184 187.893 153.984C187.893 152.432 189.125 151.488 191.045 151.488C193.029 151.488 194.229 152.496 194.245 154.032H192.869C192.837 153.056 192.229 152.56 191.045 152.56C189.909 152.56 189.285 153.056 189.285 153.84C189.285 154.288 189.477 154.608 189.813 154.784C190.149 154.928 190.293 154.976 190.629 155.04L192.277 155.344C193.733 155.6 194.469 156.352 194.469 157.6C194.469 159.2 193.173 160.16 191.141 160.16C189.029 160.16 187.733 159.088 187.733 157.472ZM195.476 157.472H196.852C196.852 158.448 197.652 159.072 198.884 159.072C200.052 159.072 200.756 158.56 200.756 157.68C200.756 157.056 200.388 156.672 199.652 156.528L197.86 156.192C196.372 155.92 195.636 155.184 195.636 153.984C195.636 152.432 196.868 151.488 198.788 151.488C200.772 151.488 201.972 152.496 201.988 154.032H200.612C200.58 153.056 199.972 152.56 198.788 152.56C197.652 152.56 197.028 153.056 197.028 153.84C197.028 154.288 197.22 154.608 197.556 154.784C197.892 154.928 198.036 154.976 198.372 155.04L200.02 155.344C201.476 155.6 202.212 156.352 202.212 157.6C202.212 159.2 200.916 160.16 198.884 160.16C196.772 160.16 195.476 159.088 195.476 157.472ZM32.0271 186H30.6351V174.272H32.0271V179.168H32.1231C32.6351 178.128 33.7071 177.488 34.9391 177.488C36.7471 177.488 37.8351 178.784 37.8351 180.848V186H36.4591V180.992C36.4591 179.44 35.8031 178.656 34.4751 178.656C33.0031 178.656 32.0271 179.808 32.0271 181.584V186ZM39.4861 183.6C39.4861 181.952 40.6221 181.024 42.5261 181.024H45.0381V180.384C45.0381 179.184 44.4141 178.592 43.1501 178.592C41.9181 178.592 41.2461 179.184 41.1981 180.144H39.8381C39.9181 178.48 41.1981 177.488 43.2301 177.488C44.3341 177.488 45.1981 177.856 45.6301 178.304C45.8381 178.528 46.0141 178.784 46.1421 179.088C46.3981 179.68 46.4141 180.032 46.4141 180.416V184.976H47.6461V186H46.2221C45.4541 186 45.1821 185.68 45.1341 185.056L45.1181 184.624H45.0221C44.6541 185.568 43.5341 186.16 42.1741 186.16C40.4941 186.16 39.4861 185.152 39.4861 183.6ZM40.9101 183.248V183.76C40.9101 184.592 41.5341 185.04 42.4941 185.04C44.0461 185.04 45.0381 184.016 45.0381 182.48V182.032H42.6541C41.5501 182.032 40.9101 182.528 40.9101 183.248ZM50.4652 186H49.0732V177.648H50.2892L50.4652 179.2H50.5772C51.0892 178.128 52.1293 177.488 53.3932 177.488C55.2013 177.488 56.2893 178.8 56.2893 180.864V186H54.8973V181.008C54.8973 179.488 54.2413 178.72 52.9292 178.72C51.4572 178.72 50.4652 179.888 50.4652 181.632V186ZM61.4279 186.16C59.2519 186.16 57.9559 184.592 57.9559 181.888C57.9559 179.152 59.2519 177.6 61.4279 177.6C62.8359 177.6 63.8919 178.208 64.4199 179.232H64.5159V174.272H65.9079V186H64.6599L64.5159 184.544H64.4199C63.8439 185.616 62.8519 186.16 61.4279 186.16ZM61.8119 185.008C63.4279 185.008 64.5159 183.952 64.5159 182.4V181.36C64.5159 179.808 63.4279 178.768 61.8119 178.768C60.3239 178.768 59.3799 179.648 59.3799 181.04V182.72C59.3799 184.112 60.3239 185.008 61.8119 185.008ZM69.7467 186H68.3707V174.272H69.7467V186ZM75.314 177.488C77.602 177.488 79.026 178.928 79.026 181.248C79.026 181.568 79.01 181.856 78.978 182.112H72.818V182.592C72.818 184.064 73.826 185.04 75.362 185.04C76.53 185.04 77.426 184.432 77.698 183.488H79.074C78.898 184.304 78.482 184.944 77.794 185.44C77.106 185.92 76.29 186.16 75.33 186.16C72.898 186.16 71.394 184.48 71.394 181.792C71.394 179.104 72.898 177.488 75.314 177.488ZM72.818 180.864V181.088H77.65V180.768C77.65 179.472 76.706 178.608 75.314 178.608C73.842 178.608 72.818 179.52 72.818 180.864ZM84.9991 186H83.1271L78.9351 174.336H80.5191L82.4711 179.904L84.0071 184.672H84.1031L85.6551 179.92L87.6391 174.336H89.1911L84.9991 186ZM92.6584 177.488C94.9464 177.488 96.3704 178.928 96.3704 181.248C96.3704 181.568 96.3544 181.856 96.3224 182.112H90.1624V182.592C90.1624 184.064 91.1704 185.04 92.7064 185.04C93.8744 185.04 94.7704 184.432 95.0424 183.488H96.4184C96.2424 184.304 95.8264 184.944 95.1384 185.44C94.4504 185.92 93.6344 186.16 92.6744 186.16C90.2424 186.16 88.7384 184.48 88.7384 181.792C88.7384 179.104 90.2424 177.488 92.6584 177.488ZM90.1624 180.864V181.088H94.9944V180.768C94.9944 179.472 94.0504 178.608 92.6584 178.608C91.1864 178.608 90.1624 179.52 90.1624 180.864ZM99.4641 177.648H102.36V178.8H99.5921V186H98.2001V178.88C98.2001 178.064 98.6161 177.648 99.4641 177.648ZM105.022 176.096H103.646V174.272H105.022V176.096ZM105.022 186H103.646V177.648H105.022V186ZM111.482 175.408H109.322V177.648H111.13V178.8H109.322V186H107.946V178.8H106.314V177.648H107.946V175.424C107.946 174.656 108.394 174.272 109.274 174.272H111.482V175.408ZM114.992 185.008L111.52 177.648H113.04L114.256 180.384L115.616 183.584H115.712L118.32 177.648H119.84L116.368 185.024V187.44C116.368 188.256 115.968 188.672 115.152 188.672H113.024V187.536H114.992V185.008ZM135.125 186H133.733V174.272H135.125V179.168H135.221C135.733 178.128 136.805 177.488 138.037 177.488C139.845 177.488 140.933 178.784 140.933 180.848V186H139.557V180.992C139.557 179.44 138.901 178.656 137.573 178.656C136.101 178.656 135.125 179.808 135.125 181.584V186ZM142.584 183.6C142.584 181.952 143.72 181.024 145.624 181.024H148.136V180.384C148.136 179.184 147.512 178.592 146.248 178.592C145.016 178.592 144.344 179.184 144.296 180.144H142.936C143.016 178.48 144.296 177.488 146.328 177.488C147.432 177.488 148.296 177.856 148.728 178.304C148.936 178.528 149.112 178.784 149.24 179.088C149.496 179.68 149.512 180.032 149.512 180.416V184.976H150.744V186H149.32C148.552 186 148.28 185.68 148.232 185.056L148.216 184.624H148.12C147.752 185.568 146.632 186.16 145.272 186.16C143.592 186.16 142.584 185.152 142.584 183.6ZM144.008 183.248V183.76C144.008 184.592 144.632 185.04 145.592 185.04C147.144 185.04 148.136 184.016 148.136 182.48V182.032H145.752C144.648 182.032 144.008 182.528 144.008 183.248ZM153.563 186H152.171V177.648H153.387L153.563 179.2H153.675C154.187 178.128 155.227 177.488 156.491 177.488C158.299 177.488 159.387 178.8 159.387 180.864V186H157.995V181.008C157.995 179.488 157.339 178.72 156.027 178.72C154.555 178.72 153.563 179.888 153.563 181.632V186ZM164.526 186.16C162.35 186.16 161.054 184.592 161.054 181.888C161.054 179.152 162.35 177.6 164.526 177.6C165.934 177.6 166.99 178.208 167.518 179.232H167.614V174.272H169.006V186H167.758L167.614 184.544H167.518C166.942 185.616 165.95 186.16 164.526 186.16ZM164.91 185.008C166.526 185.008 167.614 183.952 167.614 182.4V181.36C167.614 179.808 166.526 178.768 164.91 178.768C163.422 178.768 162.478 179.648 162.478 181.04V182.72C162.478 184.112 163.422 185.008 164.91 185.008ZM172.845 186H171.469V174.272H172.845V186ZM178.412 177.488C180.7 177.488 182.124 178.928 182.124 181.248C182.124 181.568 182.108 181.856 182.076 182.112H175.916V182.592C175.916 184.064 176.924 185.04 178.46 185.04C179.628 185.04 180.524 184.432 180.796 183.488H182.172C181.996 184.304 181.58 184.944 180.892 185.44C180.204 185.92 179.388 186.16 178.428 186.16C175.996 186.16 174.492 184.48 174.492 181.792C174.492 179.104 175.996 177.488 178.412 177.488ZM175.916 180.864V181.088H180.748V180.768C180.748 179.472 179.804 178.608 178.412 178.608C176.94 178.608 175.916 179.52 175.916 180.864ZM188.097 186H186.225L182.033 174.336H183.617L185.569 179.904L187.105 184.672H187.201L188.753 179.92L190.737 174.336H192.289L188.097 186ZM195.757 177.488C198.045 177.488 199.469 178.928 199.469 181.248C199.469 181.568 199.453 181.856 199.421 182.112H193.261V182.592C193.261 184.064 194.269 185.04 195.805 185.04C196.973 185.04 197.869 184.432 198.141 183.488H199.517C199.341 184.304 198.925 184.944 198.237 185.44C197.549 185.92 196.733 186.16 195.773 186.16C193.341 186.16 191.837 184.48 191.837 181.792C191.837 179.104 193.341 177.488 195.757 177.488ZM193.261 180.864V181.088H198.093V180.768C198.093 179.472 197.149 178.608 195.757 178.608C194.285 178.608 193.261 179.52 193.261 180.864ZM202.562 177.648H205.458V178.8H202.69V186H201.298V178.88C201.298 178.064 201.714 177.648 202.562 177.648ZM208.12 176.096H206.744V174.272H208.12V176.096ZM208.12 186H206.744V177.648H208.12V186ZM214.58 175.408H212.42V177.648H214.228V178.8H212.42V186H211.044V178.8H209.412V177.648H211.044V175.424C211.044 174.656 211.492 174.272 212.372 174.272H214.58V175.408ZM218.09 185.008L214.618 177.648H216.138L217.354 180.384L218.714 183.584H218.81L221.418 177.648H222.938L219.466 185.024V187.44C219.466 188.256 219.066 188.672 218.25 188.672H216.122V187.536H218.09V185.008ZM32.2831 212L29.2431 203.648H30.7631L32.2351 208.096L33.0511 210.576H33.1471L33.9151 208.096L35.3871 203.648H36.9071L33.9311 212H32.2831ZM41.1721 203.488C43.4601 203.488 44.8841 204.928 44.8841 207.248C44.8841 207.568 44.8681 207.856 44.8361 208.112H38.6761V208.592C38.6761 210.064 39.6841 211.04 41.2201 211.04C42.3881 211.04 43.2841 210.432 43.5561 209.488H44.9321C44.7561 210.304 44.3401 210.944 43.6521 211.44C42.9641 211.92 42.1481 212.16 41.1881 212.16C38.7561 212.16 37.2521 210.48 37.2521 207.792C37.2521 205.104 38.7561 203.488 41.1721 203.488ZM38.6761 206.864V207.088H43.5081V206.768C43.5081 205.472 42.5641 204.608 41.1721 204.608C39.7001 204.608 38.6761 205.52 38.6761 206.864ZM47.9779 203.648H50.8739V204.8H48.1059V212H46.7139V204.88C46.7139 204.064 47.1299 203.648 47.9779 203.648ZM53.5355 202.096H52.1595V200.272H53.5355V202.096ZM53.5355 212H52.1595V203.648H53.5355V212ZM59.9957 201.408H57.8357V203.648H59.6437V204.8H57.8357V212H56.4597V204.8H54.8277V203.648H56.4597V201.424C56.4597 200.656 56.9077 200.272 57.7877 200.272H59.9957V201.408ZM62.6611 202.096H61.2851V200.272H62.6611V202.096ZM62.6611 212H61.2851V203.648H62.6611V212ZM70.7374 209.152H72.1134C71.8414 211.008 70.4334 212.16 68.4014 212.16C67.1694 212.16 66.1934 211.776 65.4894 210.992C64.7854 210.208 64.4334 209.168 64.4334 207.84C64.4334 206.48 64.8014 205.408 65.5374 204.64C66.2734 203.872 67.2494 203.488 68.4494 203.488C70.3854 203.488 71.7934 204.624 72.0654 206.368H70.6894C70.4174 205.232 69.5374 204.656 68.3854 204.656C66.8974 204.656 65.8574 205.728 65.8574 207.264V208.528C65.8574 210.016 66.8654 211.008 68.3854 211.008C69.6174 211.008 70.5294 210.288 70.7374 209.152ZM73.1286 209.6C73.1286 207.952 74.2646 207.024 76.1686 207.024H78.6806V206.384C78.6806 205.184 78.0566 204.592 76.7926 204.592C75.5606 204.592 74.8886 205.184 74.8406 206.144H73.4806C73.5606 204.48 74.8406 203.488 76.8726 203.488C77.9766 203.488 78.8406 203.856 79.2726 204.304C79.4806 204.528 79.6566 204.784 79.7846 205.088C80.0406 205.68 80.0566 206.032 80.0566 206.416V210.976H81.2886V212H79.8646C79.0966 212 78.8246 211.68 78.7766 211.056L78.7606 210.624H78.6646C78.2966 211.568 77.1766 212.16 75.8166 212.16C74.1366 212.16 73.1286 211.152 73.1286 209.6ZM74.5526 209.248V209.76C74.5526 210.592 75.1766 211.04 76.1366 211.04C77.6886 211.04 78.6806 210.016 78.6806 208.48V208.032H76.2966C75.1926 208.032 74.5526 208.528 74.5526 209.248ZM84.334 204.8V210.848H86.094V212H84.174C83.358 212 82.958 211.616 82.958 210.832V204.8H81.438V203.648H82.958V200.88H84.334V203.648H86.078V204.8H84.334ZM89.1936 202.096H87.8176V200.272H89.1936V202.096ZM89.1936 212H87.8176V203.648H89.1936V212ZM90.9659 207.824C90.9659 206.48 91.3339 205.424 92.0699 204.656C92.8059 203.872 93.7819 203.488 94.9819 203.488C96.1819 203.488 97.1579 203.872 97.8779 204.64C98.6139 205.408 98.9819 206.464 98.9819 207.824C98.9819 210.464 97.4939 212.16 94.9819 212.16C93.7339 212.16 92.7579 211.776 92.0379 210.992C91.3179 210.208 90.9659 209.152 90.9659 207.824ZM92.3899 207.216V208.512C92.3899 210.096 93.5099 211.008 94.9819 211.008C96.4699 211.008 97.5739 210.064 97.5739 208.512V207.216C97.5739 205.68 96.5019 204.656 94.9819 204.656C94.2299 204.656 93.6059 204.896 93.1099 205.376C92.6299 205.84 92.3899 206.464 92.3899 207.216ZM102.163 212H100.771V203.648H101.987L102.163 205.2H102.275C102.787 204.128 103.827 203.488 105.091 203.488C106.899 203.488 107.987 204.8 107.987 206.864V212H106.595V207.008C106.595 205.488 105.939 204.72 104.627 204.72C103.155 204.72 102.163 205.888 102.163 207.632V212ZM114.406 213.12H108.918V212H114.406V213.12ZM116.82 212H115.444V200.272H116.82V212ZM122.387 203.488C124.675 203.488 126.099 204.928 126.099 207.248C126.099 207.568 126.083 207.856 126.051 208.112H119.891V208.592C119.891 210.064 120.899 211.04 122.435 211.04C123.603 211.04 124.499 210.432 124.771 209.488H126.147C125.971 210.304 125.555 210.944 124.867 211.44C124.179 211.92 123.363 212.16 122.403 212.16C119.971 212.16 118.467 210.48 118.467 207.792C118.467 205.104 119.971 203.488 122.387 203.488ZM119.891 206.864V207.088H124.723V206.768C124.723 205.472 123.779 204.608 122.387 204.608C120.915 204.608 119.891 205.52 119.891 206.864ZM129.546 212L126.506 203.648H128.026L129.498 208.096L130.314 210.576H130.41L131.178 208.096L132.65 203.648H134.17L131.194 212H129.546ZM138.435 203.488C140.723 203.488 142.147 204.928 142.147 207.248C142.147 207.568 142.131 207.856 142.099 208.112H135.939V208.592C135.939 210.064 136.947 211.04 138.483 211.04C139.651 211.04 140.547 210.432 140.819 209.488H142.195C142.019 210.304 141.603 210.944 140.915 211.44C140.227 211.92 139.411 212.16 138.451 212.16C136.019 212.16 134.515 210.48 134.515 207.792C134.515 205.104 136.019 203.488 138.435 203.488ZM135.939 206.864V207.088H140.771V206.768C140.771 205.472 139.827 204.608 138.435 204.608C136.963 204.608 135.939 205.52 135.939 206.864ZM145.352 212H143.976V200.272H145.352V212ZM45.6623 238H43.7903L39.5982 226.336H41.1823L43.1343 231.904L44.6702 236.672H44.7663L46.3183 231.92L48.3022 226.336H49.8542L45.6623 238ZM53.3215 229.488C55.6095 229.488 57.0335 230.928 57.0335 233.248C57.0335 233.568 57.0175 233.856 56.9855 234.112H50.8255V234.592C50.8255 236.064 51.8335 237.04 53.3695 237.04C54.5375 237.04 55.4335 236.432 55.7055 235.488H57.0815C56.9055 236.304 56.4895 236.944 55.8015 237.44C55.1135 237.92 54.2975 238.16 53.3375 238.16C50.9055 238.16 49.4015 236.48 49.4015 233.792C49.4015 231.104 50.9055 229.488 53.3215 229.488ZM50.8255 232.864V233.088H55.6575V232.768C55.6575 231.472 54.7135 230.608 53.3215 230.608C51.8495 230.608 50.8255 231.52 50.8255 232.864ZM60.1272 229.648H63.0232V230.8H60.2552V238H58.8632V230.88C58.8632 230.064 59.2792 229.648 60.1272 229.648ZM65.6849 228.096H64.3089V226.272H65.6849V228.096ZM65.6849 238H64.3089V229.648H65.6849V238ZM72.1451 227.408H69.9851V229.648H71.7931V230.8H69.9851V238H68.6091V230.8H66.9771V229.648H68.6091V227.424C68.6091 226.656 69.0571 226.272 69.9371 226.272H72.1451V227.408ZM74.8105 228.096H73.4345V226.272H74.8105V228.096ZM74.8105 238H73.4345V229.648H74.8105V238ZM82.8868 235.152H84.2628C83.9908 237.008 82.5828 238.16 80.5508 238.16C79.3187 238.16 78.3428 237.776 77.6387 236.992C76.9347 236.208 76.5827 235.168 76.5827 233.84C76.5827 232.48 76.9507 231.408 77.6867 230.64C78.4227 229.872 79.3988 229.488 80.5988 229.488C82.5347 229.488 83.9427 230.624 84.2148 232.368H82.8388C82.5668 231.232 81.6867 230.656 80.5347 230.656C79.0468 230.656 78.0067 231.728 78.0067 233.264V234.528C78.0067 236.016 79.0148 237.008 80.5347 237.008C81.7668 237.008 82.6788 236.288 82.8868 235.152ZM85.278 235.6C85.278 233.952 86.414 233.024 88.318 233.024H90.83V232.384C90.83 231.184 90.206 230.592 88.942 230.592C87.71 230.592 87.038 231.184 86.99 232.144H85.63C85.71 230.48 86.99 229.488 89.022 229.488C90.126 229.488 90.99 229.856 91.422 230.304C91.63 230.528 91.806 230.784 91.934 231.088C92.19 231.68 92.206 232.032 92.206 232.416V236.976H93.438V238H92.014C91.246 238 90.974 237.68 90.926 237.056L90.91 236.624H90.814C90.446 237.568 89.326 238.16 87.966 238.16C86.286 238.16 85.278 237.152 85.278 235.6ZM86.702 235.248V235.76C86.702 236.592 87.326 237.04 88.286 237.04C89.838 237.04 90.83 236.016 90.83 234.48V234.032H88.446C87.342 234.032 86.702 234.528 86.702 235.248ZM96.4834 230.8V236.848H98.2434V238H96.3234C95.5074 238 95.1074 237.616 95.1074 236.832V230.8H93.5874V229.648H95.1074V226.88H96.4834V229.648H98.2274V230.8H96.4834ZM101.343 228.096H99.967V226.272H101.343V228.096ZM101.343 238H99.967V229.648H101.343V238ZM103.115 233.824C103.115 232.48 103.483 231.424 104.219 230.656C104.955 229.872 105.931 229.488 107.131 229.488C108.331 229.488 109.307 229.872 110.027 230.64C110.763 231.408 111.131 232.464 111.131 233.824C111.131 236.464 109.643 238.16 107.131 238.16C105.883 238.16 104.907 237.776 104.187 236.992C103.467 236.208 103.115 235.152 103.115 233.824ZM104.539 233.216V234.512C104.539 236.096 105.659 237.008 107.131 237.008C108.619 237.008 109.723 236.064 109.723 234.512V233.216C109.723 231.68 108.651 230.656 107.131 230.656C106.379 230.656 105.755 230.896 105.259 231.376C104.779 231.84 104.539 232.464 104.539 233.216ZM114.313 238H112.921V229.648H114.137L114.313 231.2H114.425C114.937 230.128 115.977 229.488 117.241 229.488C119.049 229.488 120.137 230.8 120.137 232.864V238H118.745V233.008C118.745 231.488 118.089 230.72 116.777 230.72C115.305 230.72 114.313 231.888 114.313 233.632V238ZM129.675 238H122.715V226.336H124.171V236.672H129.675V238ZM134.294 229.488C136.582 229.488 138.006 230.928 138.006 233.248C138.006 233.568 137.99 233.856 137.958 234.112H131.798V234.592C131.798 236.064 132.806 237.04 134.342 237.04C135.51 237.04 136.406 236.432 136.678 235.488H138.054C137.878 236.304 137.462 236.944 136.774 237.44C136.086 237.92 135.27 238.16 134.31 238.16C131.878 238.16 130.374 236.48 130.374 233.792C130.374 231.104 131.878 229.488 134.294 229.488ZM131.798 232.864V233.088H136.63V232.768C136.63 231.472 135.686 230.608 134.294 230.608C132.822 230.608 131.798 231.52 131.798 232.864ZM141.452 238L138.412 229.648H139.932L141.404 234.096L142.22 236.576H142.316L143.084 234.096L144.556 229.648H146.076L143.1 238H141.452ZM150.341 229.488C152.629 229.488 154.053 230.928 154.053 233.248C154.053 233.568 154.037 233.856 154.005 234.112H147.845V234.592C147.845 236.064 148.853 237.04 150.389 237.04C151.557 237.04 152.453 236.432 152.725 235.488H154.101C153.925 236.304 153.509 236.944 152.821 237.44C152.133 237.92 151.317 238.16 150.357 238.16C147.925 238.16 146.421 236.48 146.421 233.792C146.421 231.104 147.925 229.488 150.341 229.488ZM147.845 232.864V233.088H152.677V232.768C152.677 231.472 151.733 230.608 150.341 230.608C148.869 230.608 147.845 231.52 147.845 232.864ZM157.259 238H155.883V226.272H157.259V238Z" fill="#003F7A"/>
<path d="M644 41V323" stroke="white" stroke-opacity="0.1"/>
<rect x="596" y="64" width="32" height="32" rx="16" fill="white" fill-opacity="0.16"/>
<path d="M616.815 72.5926H610.148C609.333 72.5926 608.667 73.2593 608.667 74.0741V82.963C608.667 83.7778 609.333 84.4444 610.148 84.4444H616.815C617.63 84.4444 618.296 83.7778 618.296 82.963V74.0741C618.296 73.2593 617.63 72.5926 616.815 72.5926ZM616.815 82.963H610.148V74.0741H616.815V82.963ZM605.704 82.2222V80.7407H607.185V82.2222H605.704ZM605.704 78.1481H607.185V79.6296H605.704V78.1481ZM610.889 85.9259H612.37V87.4074H610.889V85.9259ZM605.704 84.8148V83.3333H607.185V84.8148H605.704ZM607.185 87.4074C606.37 87.4074 605.704 86.7407 605.704 85.9259H607.185V87.4074ZM609.778 87.4074H608.296V85.9259H609.778V87.4074ZM613.481 87.4074V85.9259H614.963C614.963 86.7407 614.296 87.4074 613.481 87.4074ZM607.185 75.5556V77.037H605.704C605.704 76.2222 606.37 75.5556 607.185 75.5556Z" fill="#F9FAFB"/>
</g>
<defs>
<filter id="filter0_b_394_6466" x="-100" y="-100" width="844" height="241" filterUnits="userSpaceOnUse" color-interpolation-filters="sRGB">
<feFlood flood-opacity="0" result="BackgroundImageFix"/>
<feGaussianBlur in="BackgroundImageFix" stdDeviation="50"/>
<feComposite in2="SourceAlpha" operator="in" result="effect1_backgroundBlur_394_6466"/>
<feBlend mode="normal" in="SourceGraphic" in2="effect1_backgroundBlur_394_6466" result="shape"/>
</filter>
<linearGradient id="paint0_linear_394_6466" x1="322" y1="41" x2="322" y2="323" gradientUnits="userSpaceOnUse">
<stop offset="0.38488" stop-opacity="0"/>
<stop offset="1"/>
</linearGradient>
<clipPath id="clip0_394_6466">
<rect width="644" height="323" rx="8" fill="white"/>
</clipPath>
</defs>
</svg>
