<svg width="133" height="20" viewBox="0 0 133 20" fill="none" xmlns="http://www.w3.org/2000/svg">
<path d="M41.876 12.768C41.05 11.844 40.63 10.556 40.63 8.904C40.63 7.252 41.05 5.964 41.89 5.054C42.73 4.13 43.906 3.668 45.404 3.668C46.902 3.668 48.078 4.13 48.918 5.054C49.758 5.964 50.178 7.252 50.178 8.904C50.178 10.556 49.758 11.844 48.918 12.768C48.092 13.678 46.916 14.14 45.404 14.14C43.892 14.14 42.716 13.678 41.876 12.768ZM41.974 8.176V9.604C41.974 11.732 43.318 12.992 45.404 12.992C47.574 12.992 48.834 11.676 48.834 9.604V8.176C48.834 7.126 48.526 6.3 47.896 5.712C47.28 5.11 46.454 4.816 45.404 4.816C43.234 4.816 41.974 6.118 41.974 8.176ZM52.8305 16.338H51.6125V6.692H52.7045L52.8305 7.98H52.9145C53.4045 7.07 54.3425 6.552 55.5325 6.552C57.4365 6.552 58.5705 7.924 58.5705 10.29C58.5705 12.684 57.4365 14.042 55.5325 14.042C54.3005 14.042 53.3765 13.51 52.9145 12.614H52.8305V16.338ZM55.1965 13.02C56.4985 13.02 57.3245 12.25 57.3245 11.032V9.562C57.3245 8.344 56.4985 7.56 55.1965 7.56C53.7825 7.56 52.8305 8.484 52.8305 9.842V10.752C52.8305 12.11 53.7825 13.02 55.1965 13.02ZM62.9482 6.552C64.9502 6.552 66.1962 7.812 66.1962 9.842C66.1962 10.122 66.1822 10.374 66.1542 10.598H60.7642V11.018C60.7642 12.306 61.6462 13.16 62.9902 13.16C64.0122 13.16 64.7962 12.628 65.0342 11.802H66.2382C66.0842 12.516 65.7202 13.076 65.1182 13.51C64.5162 13.93 63.8022 14.14 62.9622 14.14C60.8342 14.14 59.5182 12.67 59.5182 10.318C59.5182 7.966 60.8342 6.552 62.9482 6.552ZM60.7642 9.506V9.702H64.9922V9.422C64.9922 8.288 64.1662 7.532 62.9482 7.532C61.6602 7.532 60.7642 8.33 60.7642 9.506ZM68.8752 14H67.6572V6.692H68.7212L68.8752 8.05H68.9732C69.4212 7.112 70.3312 6.552 71.4372 6.552C73.0192 6.552 73.9712 7.7 73.9712 9.506V14H72.7532V9.632C72.7532 8.302 72.1792 7.63 71.0312 7.63C69.7432 7.63 68.8752 8.652 68.8752 10.178V14ZM77.3615 14H76.0875V3.794H80.5255C82.6535 3.794 83.7175 4.998 83.7175 7.014C83.7175 9.086 82.5975 10.276 80.5255 10.276H77.3615V14ZM77.3615 4.97V9.156H80.4695C81.6875 9.156 82.3735 8.526 82.3735 7.518V6.496C82.3735 5.53 81.6875 4.97 80.6235 4.97H77.3615ZM84.1387 11.9C84.1387 10.458 85.1327 9.646 86.7987 9.646H88.9967V9.086C88.9967 8.036 88.4507 7.518 87.3447 7.518C86.2667 7.518 85.6787 8.036 85.6367 8.876H84.4467C84.5167 7.42 85.6367 6.552 87.4147 6.552C88.3807 6.552 89.1367 6.874 89.5147 7.266C89.6967 7.462 89.8507 7.686 89.9627 7.952C90.1867 8.47 90.2007 8.778 90.2007 9.114V13.104H91.2787V14H90.0327C89.3607 14 89.1227 13.72 89.0807 13.174L89.0667 12.796H88.9827C88.6607 13.622 87.6807 14.14 86.4907 14.14C85.0207 14.14 84.1387 13.258 84.1387 11.9ZM85.3847 11.592V12.04C85.3847 12.768 85.9307 13.16 86.7707 13.16C88.1287 13.16 88.9967 12.264 88.9967 10.92V10.528H86.9107C85.9447 10.528 85.3847 10.962 85.3847 11.592ZM91.7575 11.788H92.9615C92.9615 12.642 93.6615 13.188 94.7395 13.188C95.7615 13.188 96.3775 12.74 96.3775 11.97C96.3775 11.424 96.0555 11.088 95.4115 10.962L93.8435 10.668C92.5415 10.43 91.8975 9.786 91.8975 8.736C91.8975 7.378 92.9755 6.552 94.6555 6.552C96.3915 6.552 97.4415 7.434 97.4555 8.778H96.2515C96.2235 7.924 95.6915 7.49 94.6555 7.49C93.6615 7.49 93.1155 7.924 93.1155 8.61C93.1155 9.002 93.2835 9.282 93.5775 9.436C93.8715 9.562 93.9975 9.604 94.2915 9.66L95.7335 9.926C97.0075 10.15 97.6515 10.808 97.6515 11.9C97.6515 13.3 96.5175 14.14 94.7395 14.14C92.8915 14.14 91.7575 13.202 91.7575 11.788ZM98.3921 11.788H99.5961C99.5961 12.642 100.296 13.188 101.374 13.188C102.396 13.188 103.012 12.74 103.012 11.97C103.012 11.424 102.69 11.088 102.046 10.962L100.478 10.668C99.1761 10.43 98.5321 9.786 98.5321 8.736C98.5321 7.378 99.6101 6.552 101.29 6.552C103.026 6.552 104.076 7.434 104.09 8.778H102.886C102.858 7.924 102.326 7.49 101.29 7.49C100.296 7.49 99.7501 7.924 99.7501 8.61C99.7501 9.002 99.9181 9.282 100.212 9.436C100.506 9.562 100.632 9.604 100.926 9.66L102.368 9.926C103.642 10.15 104.286 10.808 104.286 11.9C104.286 13.3 103.152 14.14 101.374 14.14C99.5261 14.14 98.3921 13.202 98.3921 11.788ZM106.875 16.338H105.657V6.692H106.749L106.875 7.98H106.959C107.449 7.07 108.387 6.552 109.577 6.552C111.481 6.552 112.615 7.924 112.615 10.29C112.615 12.684 111.481 14.042 109.577 14.042C108.345 14.042 107.421 13.51 106.959 12.614H106.875V16.338ZM109.241 13.02C110.543 13.02 111.369 12.25 111.369 11.032V9.562C111.369 8.344 110.543 7.56 109.241 7.56C107.827 7.56 106.875 8.484 106.875 9.842V10.752C106.875 12.11 107.827 13.02 109.241 13.02ZM113.563 10.346C113.563 9.17 113.885 8.246 114.529 7.574C115.173 6.888 116.027 6.552 117.077 6.552C118.127 6.552 118.981 6.888 119.611 7.56C120.255 8.232 120.577 9.156 120.577 10.346C120.577 12.656 119.275 14.14 117.077 14.14C115.985 14.14 115.131 13.804 114.501 13.118C113.871 12.432 113.563 11.508 113.563 10.346ZM114.809 9.814V10.948C114.809 12.334 115.789 13.132 117.077 13.132C118.379 13.132 119.345 12.306 119.345 10.948V9.814C119.345 8.47 118.407 7.574 117.077 7.574C116.419 7.574 115.873 7.784 115.439 8.204C115.019 8.61 114.809 9.156 114.809 9.814ZM123.108 6.692H125.642V7.7H123.22V14H122.002V7.77C122.002 7.056 122.366 6.692 123.108 6.692ZM128.289 7.7V12.992H129.829V14H128.149C127.435 14 127.085 13.664 127.085 12.978V7.7H125.755V6.692H127.085V4.27H128.289V6.692H129.815V7.7H128.289Z" fill="#010101"/>
<path d="M1.75023 0.0549407C1.13189 0.191185 0.541502 0.65232 0.251546 1.22524C-0.00696853 1.73878 1.83745e-05 1.63048 1.83745e-05 5.12742V8.24707H4.97818C9.69433 8.24707 9.95634 8.24358 9.95634 8.18419C9.95634 8.15275 10.0192 7.93615 10.0996 7.70559C10.3825 6.86367 10.8576 6.07065 11.462 5.43834C12.0489 4.82 12.531 4.47066 13.2856 4.10734C14.0716 3.72655 14.8157 3.5414 15.7031 3.50646C17.0236 3.45406 18.2812 3.81738 19.4131 4.58245C19.8603 4.88638 20.5659 5.5676 20.8838 6.00428C21.3065 6.5772 21.6559 7.29336 21.841 7.95711L21.9214 8.24707H26.9624H32V5.12742C32 1.63398 32.007 1.74926 31.7485 1.22874C31.4655 0.65232 30.8611 0.184198 30.2358 0.0549407C29.876 -0.0184216 2.09609 -0.0184216 1.75023 0.0549407Z" fill="black"/>
<path d="M15.3887 4.93158C14.5293 5.05036 13.6071 5.43813 12.9049 5.97962C12.6324 6.18922 12.1223 6.7342 11.9407 7.00669C11.3922 7.84162 11.1442 8.71498 11.1896 9.67917C11.2804 11.6215 12.304 13.1691 14.0158 13.9586C15.0359 14.4268 16.3564 14.5001 17.4498 14.1473C18.18 13.9097 18.8926 13.4661 19.3922 12.9351C20.2446 12.0303 20.6464 10.9717 20.6498 9.62677C20.6533 8.79184 20.5136 8.15254 20.1782 7.4783C19.9372 6.98922 19.7171 6.68879 19.3188 6.29053C18.6306 5.60232 17.8202 5.16564 16.8664 4.98049C16.5171 4.91062 15.7276 4.88617 15.3887 4.93158ZM15.6857 6.39883V7.41542L15.5215 7.39446C14.9031 7.30713 14.3232 7.15341 14.3232 7.06957C14.3232 6.97175 14.7389 6.18224 15.0044 5.777L15.2664 5.38224H15.4761H15.6857V6.39883ZM16.7477 5.65822C17.0865 6.12983 17.5651 7.02066 17.5197 7.09403C17.4603 7.18835 16.7756 7.35953 16.3843 7.38049L16.1573 7.39097L16.1468 6.38486L16.1398 5.38224H16.3424H16.5485L16.7477 5.65822ZM14.442 5.87481C14.2394 6.20669 13.9389 6.80756 13.9389 6.88092C13.9389 6.90189 13.9215 6.91935 13.904 6.91935C13.8411 6.91935 13.2158 6.59796 13.111 6.51411L13.0132 6.43027L13.1529 6.30451C13.3555 6.12285 13.5407 6.00058 13.8551 5.83988C14.1066 5.71062 14.6062 5.51848 14.6306 5.53944C14.6376 5.54294 14.5503 5.69665 14.442 5.87481ZM17.4289 5.60582C17.7538 5.73507 18.2149 5.9901 18.5223 6.21018C18.6726 6.31848 18.7948 6.4163 18.7948 6.43027C18.7948 6.48267 18.6167 6.60844 18.2953 6.77961C18.1066 6.88092 17.9494 6.95778 17.9424 6.95079C17.9354 6.94381 17.8376 6.74119 17.7223 6.50014C17.6071 6.25909 17.4359 5.95167 17.345 5.81892C17.2542 5.68267 17.1739 5.5639 17.1669 5.54643C17.1389 5.50451 17.1983 5.51848 17.4289 5.60582ZM13.3381 7.11848C13.5616 7.22328 13.7503 7.31411 13.7573 7.3211C13.7643 7.32459 13.7049 7.52023 13.628 7.75079C13.4918 8.14905 13.3765 8.708 13.3276 9.17961L13.3031 9.3997H12.4752C12.0175 9.3997 11.6368 9.39271 11.6263 9.38223C11.6018 9.35778 11.6892 8.74293 11.7555 8.48442C11.9058 7.9045 12.2376 7.24424 12.559 6.88791L12.6918 6.74468L12.8106 6.83551C12.8769 6.88442 13.1145 7.01368 13.3381 7.11848ZM19.525 7.23376C19.766 7.60057 19.9616 8.04075 20.0734 8.48791C20.1573 8.8128 20.2306 9.35079 20.1957 9.38223C20.1887 9.39271 19.8149 9.3997 19.3678 9.3997H18.5573L18.5328 9.17961C18.4979 8.81979 18.3826 8.28878 18.2498 7.86258C18.1835 7.6425 18.1171 7.4294 18.1101 7.39097C18.0926 7.33158 18.145 7.29315 18.4315 7.14643C18.6202 7.04861 18.8507 6.92285 18.9485 6.85996L19.1267 6.74817L19.228 6.8425C19.2839 6.8949 19.4167 7.06957 19.525 7.23376ZM14.5398 7.59708C14.9346 7.72983 15.3712 7.82765 15.5634 7.82765H15.6857V8.61367V9.3997H14.7075H13.7293V9.21455C13.7293 8.92459 13.8202 8.43551 13.9599 8.00232C14.0822 7.61804 14.1346 7.4783 14.166 7.4783C14.173 7.4783 14.3407 7.53071 14.5398 7.59708ZM17.7817 7.67743C17.9459 8.1176 18.0961 8.84075 18.0961 9.20057V9.3997L17.1285 9.39271L16.1573 9.38223V8.61717V7.84861L16.4892 7.7997C16.6673 7.77525 16.9992 7.6949 17.2228 7.61804C17.4429 7.54468 17.642 7.4818 17.6664 7.4818C17.6874 7.4783 17.7398 7.56913 17.7817 7.67743ZM13.3311 10.2207C13.3835 10.6923 13.4289 10.8949 13.6106 11.4504C13.6944 11.7124 13.7643 11.929 13.7643 11.9324C13.7643 11.9359 13.5197 12.0617 13.2193 12.2154L12.6743 12.4914L12.5695 12.3691C12.2202 11.9639 11.8743 11.2512 11.7451 10.6748C11.6612 10.3045 11.6158 9.94118 11.6507 9.88878C11.6647 9.86433 11.9337 9.85734 12.4822 9.86083L13.2926 9.87131L13.3311 10.2207ZM15.6787 10.6469L15.6857 11.4259H15.5389C15.3433 11.4294 14.8717 11.5342 14.4874 11.6669L14.18 11.7717L14.0961 11.5901C13.9424 11.2582 13.7293 10.322 13.7293 9.99009V9.85385L14.7005 9.86083L15.6682 9.87131L15.6787 10.6469ZM18.0961 10.06C18.0961 10.3534 18.0123 10.7901 17.8656 11.2512C17.6874 11.8207 17.7223 11.7822 17.4429 11.6809C17.1354 11.5691 16.7092 11.4678 16.4018 11.4364L16.1573 11.4084L16.1468 10.6748C16.1433 10.2731 16.1468 9.92372 16.1538 9.89926C16.1678 9.86433 16.3878 9.85385 17.1354 9.85385H18.0961V10.06ZM20.2027 9.8783C20.2341 9.94118 20.1503 10.5351 20.0664 10.8215C19.9022 11.3945 19.5843 12.0198 19.2944 12.3482C19.2315 12.418 19.1651 12.4739 19.1442 12.4739C19.1232 12.4739 19.0464 12.4355 18.973 12.3901C18.8996 12.3447 18.6656 12.2189 18.4525 12.1106L18.0647 11.915L18.173 11.6285C18.4001 11.0032 18.5503 10.3953 18.5503 10.0774C18.5503 9.97961 18.5608 9.88878 18.5747 9.8783C18.6062 9.84337 20.1852 9.84686 20.2027 9.8783ZM15.6857 12.8792V13.9482L15.4865 13.9237C15.3747 13.9097 15.2734 13.8923 15.2595 13.8853C15.1477 13.8154 14.449 12.5822 14.3337 12.2399C14.2953 12.1316 14.2953 12.1281 14.4385 12.0722C14.6306 11.9988 15.4271 11.8172 15.5739 11.8137L15.6857 11.8102V12.8792ZM16.5765 11.8626C16.8944 11.9115 17.4464 12.0652 17.5127 12.1211C17.5442 12.1525 16.9293 13.3927 16.7372 13.6827C16.5974 13.8923 16.5905 13.8993 16.4018 13.9237C16.297 13.9342 16.1957 13.9377 16.1747 13.9237C16.1363 13.8993 16.1223 11.8731 16.1643 11.8346C16.1922 11.8032 16.1712 11.8032 16.5765 11.8626ZM14.166 12.8233C14.3092 13.1097 14.4839 13.4311 14.5538 13.5394C14.6202 13.6477 14.6726 13.7421 14.6656 13.749C14.6411 13.7735 13.9913 13.4975 13.7992 13.3857C13.5651 13.246 13.0306 12.8512 13.0306 12.8198C13.0306 12.7814 13.8202 12.3062 13.8935 12.2993C13.9005 12.2993 14.0228 12.5333 14.166 12.8233ZM18.2254 12.4635C18.6167 12.6696 18.7948 12.7814 18.7948 12.8198C18.7948 12.8687 18.4629 13.1621 18.2533 13.2984C17.9774 13.4731 17.359 13.7316 17.2158 13.7316C17.1983 13.7316 17.2298 13.6652 17.2857 13.5814C17.4568 13.3333 17.6629 12.9246 17.7852 12.6032C17.8481 12.4355 17.904 12.2993 17.9075 12.2993C17.9145 12.2993 18.0542 12.3726 18.2254 12.4635Z" fill="black"/>
<path d="M1.83745e-05 14.0182C1.83745e-05 17.5152 -0.00696853 17.3999 0.251546 17.9204C0.538009 18.5038 1.1284 18.9615 1.76421 19.0942C2.13451 19.1711 29.8655 19.1711 30.2358 19.0942C30.8716 18.9615 31.4655 18.5003 31.7519 17.9239C32.007 17.4069 32 17.5117 32 14.0182V10.9021H26.9729H21.9458L21.9214 11.0313C21.9074 11.1047 21.8515 11.3143 21.7921 11.496C21.1598 13.4733 19.6017 14.9859 17.607 15.5588C17.0306 15.7265 16.6603 15.7719 15.9301 15.7719C15.2 15.7719 14.8297 15.7265 14.2533 15.5588C12.2585 14.9859 10.7004 13.4733 10.0681 11.496C10.0087 11.3143 9.95285 11.1047 9.93887 11.0313L9.91442 10.9021H4.95722H1.83745e-05V14.0182Z" fill="black"/>
</svg>
