<svg width="32" height="20" viewBox="0 0 32 20" fill="none" xmlns="http://www.w3.org/2000/svg">
<path d="M1.75023 0.0549407C1.13189 0.191185 0.541502 0.65232 0.251546 1.22524C-0.00696853 1.73878 1.83745e-05 1.63048 1.83745e-05 5.12742V8.24707H4.97818C9.69433 8.24707 9.95634 8.24358 9.95634 8.18419C9.95634 8.15275 10.0192 7.93615 10.0996 7.70559C10.3825 6.86367 10.8576 6.07065 11.462 5.43834C12.0489 4.82 12.531 4.47066 13.2856 4.10734C14.0716 3.72655 14.8157 3.5414 15.7031 3.50646C17.0236 3.45406 18.2812 3.81738 19.4131 4.58245C19.8603 4.88638 20.5659 5.5676 20.8838 6.00428C21.3065 6.5772 21.6559 7.29336 21.841 7.95711L21.9214 8.24707H26.9624H32V5.12742C32 1.63398 32.007 1.74926 31.7485 1.22874C31.4655 0.65232 30.8611 0.184198 30.2358 0.0549407C29.876 -0.0184216 2.09609 -0.0184216 1.75023 0.0549407Z" fill="black"/>
<path d="M15.3887 4.93158C14.5293 5.05036 13.6071 5.43813 12.9049 5.97962C12.6324 6.18922 12.1223 6.7342 11.9407 7.00669C11.3922 7.84162 11.1442 8.71498 11.1896 9.67917C11.2804 11.6215 12.304 13.1691 14.0158 13.9586C15.0359 14.4268 16.3564 14.5001 17.4498 14.1473C18.18 13.9097 18.8926 13.4661 19.3922 12.9351C20.2446 12.0303 20.6464 10.9717 20.6498 9.62677C20.6533 8.79184 20.5136 8.15254 20.1782 7.4783C19.9372 6.98922 19.7171 6.68879 19.3188 6.29053C18.6306 5.60232 17.8202 5.16564 16.8664 4.98049C16.5171 4.91062 15.7276 4.88617 15.3887 4.93158ZM15.6857 6.39883V7.41542L15.5215 7.39446C14.9031 7.30713 14.3232 7.15341 14.3232 7.06957C14.3232 6.97175 14.7389 6.18224 15.0044 5.777L15.2664 5.38224H15.4761H15.6857V6.39883ZM16.7477 5.65822C17.0865 6.12983 17.5651 7.02066 17.5197 7.09403C17.4603 7.18835 16.7756 7.35953 16.3843 7.38049L16.1573 7.39097L16.1468 6.38486L16.1398 5.38224H16.3424H16.5485L16.7477 5.65822ZM14.442 5.87481C14.2394 6.20669 13.9389 6.80756 13.9389 6.88092C13.9389 6.90189 13.9215 6.91935 13.904 6.91935C13.8411 6.91935 13.2158 6.59796 13.111 6.51411L13.0132 6.43027L13.1529 6.30451C13.3555 6.12285 13.5407 6.00058 13.8551 5.83988C14.1066 5.71062 14.6062 5.51848 14.6306 5.53944C14.6376 5.54294 14.5503 5.69665 14.442 5.87481ZM17.4289 5.60582C17.7538 5.73507 18.2149 5.9901 18.5223 6.21018C18.6726 6.31848 18.7948 6.4163 18.7948 6.43027C18.7948 6.48267 18.6167 6.60844 18.2953 6.77961C18.1066 6.88092 17.9494 6.95778 17.9424 6.95079C17.9354 6.94381 17.8376 6.74119 17.7223 6.50014C17.6071 6.25909 17.4359 5.95167 17.345 5.81892C17.2542 5.68267 17.1739 5.5639 17.1669 5.54643C17.1389 5.50451 17.1983 5.51848 17.4289 5.60582ZM13.3381 7.11848C13.5616 7.22328 13.7503 7.31411 13.7573 7.3211C13.7643 7.32459 13.7049 7.52023 13.628 7.75079C13.4918 8.14905 13.3765 8.708 13.3276 9.17961L13.3031 9.3997H12.4752C12.0175 9.3997 11.6368 9.39271 11.6263 9.38223C11.6018 9.35778 11.6892 8.74293 11.7555 8.48442C11.9058 7.9045 12.2376 7.24424 12.559 6.88791L12.6918 6.74468L12.8106 6.83551C12.8769 6.88442 13.1145 7.01368 13.3381 7.11848ZM19.525 7.23376C19.766 7.60057 19.9616 8.04075 20.0734 8.48791C20.1573 8.8128 20.2306 9.35079 20.1957 9.38223C20.1887 9.39271 19.8149 9.3997 19.3678 9.3997H18.5573L18.5328 9.17961C18.4979 8.81979 18.3826 8.28878 18.2498 7.86258C18.1835 7.6425 18.1171 7.4294 18.1101 7.39097C18.0926 7.33158 18.145 7.29315 18.4315 7.14643C18.6202 7.04861 18.8507 6.92285 18.9485 6.85996L19.1267 6.74817L19.228 6.8425C19.2839 6.8949 19.4167 7.06957 19.525 7.23376ZM14.5398 7.59708C14.9346 7.72983 15.3712 7.82765 15.5634 7.82765H15.6857V8.61367V9.3997H14.7075H13.7293V9.21455C13.7293 8.92459 13.8202 8.43551 13.9599 8.00232C14.0822 7.61804 14.1346 7.4783 14.166 7.4783C14.173 7.4783 14.3407 7.53071 14.5398 7.59708ZM17.7817 7.67743C17.9459 8.1176 18.0961 8.84075 18.0961 9.20057V9.3997L17.1285 9.39271L16.1573 9.38223V8.61717V7.84861L16.4892 7.7997C16.6673 7.77525 16.9992 7.6949 17.2228 7.61804C17.4429 7.54468 17.642 7.4818 17.6664 7.4818C17.6874 7.4783 17.7398 7.56913 17.7817 7.67743ZM13.3311 10.2207C13.3835 10.6923 13.4289 10.8949 13.6106 11.4504C13.6944 11.7124 13.7643 11.929 13.7643 11.9324C13.7643 11.9359 13.5197 12.0617 13.2193 12.2154L12.6743 12.4914L12.5695 12.3691C12.2202 11.9639 11.8743 11.2512 11.7451 10.6748C11.6612 10.3045 11.6158 9.94118 11.6507 9.88878C11.6647 9.86433 11.9337 9.85734 12.4822 9.86083L13.2926 9.87131L13.3311 10.2207ZM15.6787 10.6469L15.6857 11.4259H15.5389C15.3433 11.4294 14.8717 11.5342 14.4874 11.6669L14.18 11.7717L14.0961 11.5901C13.9424 11.2582 13.7293 10.322 13.7293 9.99009V9.85385L14.7005 9.86083L15.6682 9.87131L15.6787 10.6469ZM18.0961 10.06C18.0961 10.3534 18.0123 10.7901 17.8656 11.2512C17.6874 11.8207 17.7223 11.7822 17.4429 11.6809C17.1354 11.5691 16.7092 11.4678 16.4018 11.4364L16.1573 11.4084L16.1468 10.6748C16.1433 10.2731 16.1468 9.92372 16.1538 9.89926C16.1678 9.86433 16.3878 9.85385 17.1354 9.85385H18.0961V10.06ZM20.2027 9.8783C20.2341 9.94118 20.1503 10.5351 20.0664 10.8215C19.9022 11.3945 19.5843 12.0198 19.2944 12.3482C19.2315 12.418 19.1651 12.4739 19.1442 12.4739C19.1232 12.4739 19.0464 12.4355 18.973 12.3901C18.8996 12.3447 18.6656 12.2189 18.4525 12.1106L18.0647 11.915L18.173 11.6285C18.4001 11.0032 18.5503 10.3953 18.5503 10.0774C18.5503 9.97961 18.5608 9.88878 18.5747 9.8783C18.6062 9.84337 20.1852 9.84686 20.2027 9.8783ZM15.6857 12.8792V13.9482L15.4865 13.9237C15.3747 13.9097 15.2734 13.8923 15.2595 13.8853C15.1477 13.8154 14.449 12.5822 14.3337 12.2399C14.2953 12.1316 14.2953 12.1281 14.4385 12.0722C14.6306 11.9988 15.4271 11.8172 15.5739 11.8137L15.6857 11.8102V12.8792ZM16.5765 11.8626C16.8944 11.9115 17.4464 12.0652 17.5127 12.1211C17.5442 12.1525 16.9293 13.3927 16.7372 13.6827C16.5974 13.8923 16.5905 13.8993 16.4018 13.9237C16.297 13.9342 16.1957 13.9377 16.1747 13.9237C16.1363 13.8993 16.1223 11.8731 16.1643 11.8346C16.1922 11.8032 16.1712 11.8032 16.5765 11.8626ZM14.166 12.8233C14.3092 13.1097 14.4839 13.4311 14.5538 13.5394C14.6202 13.6477 14.6726 13.7421 14.6656 13.749C14.6411 13.7735 13.9913 13.4975 13.7992 13.3857C13.5651 13.246 13.0306 12.8512 13.0306 12.8198C13.0306 12.7814 13.8202 12.3062 13.8935 12.2993C13.9005 12.2993 14.0228 12.5333 14.166 12.8233ZM18.2254 12.4635C18.6167 12.6696 18.7948 12.7814 18.7948 12.8198C18.7948 12.8687 18.4629 13.1621 18.2533 13.2984C17.9774 13.4731 17.359 13.7316 17.2158 13.7316C17.1983 13.7316 17.2298 13.6652 17.2857 13.5814C17.4568 13.3333 17.6629 12.9246 17.7852 12.6032C17.8481 12.4355 17.904 12.2993 17.9075 12.2993C17.9145 12.2993 18.0542 12.3726 18.2254 12.4635Z" fill="black"/>
<path d="M1.83745e-05 14.0182C1.83745e-05 17.5152 -0.00696853 17.3999 0.251546 17.9204C0.538009 18.5038 1.1284 18.9615 1.76421 19.0942C2.13451 19.1711 29.8655 19.1711 30.2358 19.0942C30.8716 18.9615 31.4655 18.5003 31.7519 17.9239C32.007 17.4069 32 17.5117 32 14.0182V10.9021H26.9729H21.9458L21.9214 11.0313C21.9074 11.1047 21.8515 11.3143 21.7921 11.496C21.1598 13.4733 19.6017 14.9859 17.607 15.5588C17.0306 15.7265 16.6603 15.7719 15.9301 15.7719C15.2 15.7719 14.8297 15.7265 14.2533 15.5588C12.2585 14.9859 10.7004 13.4733 10.0681 11.496C10.0087 11.3143 9.95285 11.1047 9.93887 11.0313L9.91442 10.9021H4.95722H1.83745e-05V14.0182Z" fill="black"/>
</svg>
