<svg width="2000" height="2000" viewBox="0 0 2000 2000" fill="none" xmlns="http://www.w3.org/2000/svg">
<path d="M1000 2000C732.873 2000 481.779 1895.98 292.88 1707.12C104.023 1518.22 0 1267.08 0 1000C0 732.915 104.023 481.779 292.88 292.88C481.737 103.981 732.873 0 1000 0C1267.13 0 1518.22 104.023 1707.12 292.88C1895.98 481.737 2000 732.873 2000 1000C2000 1267.13 1895.98 1518.22 1707.12 1707.12C1518.26 1895.98 1267.13 2000 1000 2000ZM1000 50.4965C746.381 50.4965 507.953 149.259 328.606 328.606C149.259 507.953 50.4965 746.381 50.4965 1000C50.4965 1253.62 149.259 1492.05 328.606 1671.39C507.953 1850.74 746.381 1949.5 1000 1949.5C1253.62 1949.5 1492.05 1850.74 1671.39 1671.39C1850.74 1492.05 1949.5 1253.62 1949.5 1000C1949.5 746.381 1850.74 507.953 1671.39 328.606C1492.05 149.259 1253.62 50.4965 1000 50.4965Z" fill="black"/>
<path d="M287.197 898.194L154.139 870.463L164.196 822.197C171.181 788.743 192.937 772.163 221.678 778.138L224.581 778.728C252.986 784.661 266.451 808.605 259.508 842.059L255.637 860.7L293.425 868.569L287.239 898.236L287.197 898.194ZM185.994 846.141L229.926 855.314L234.092 835.242C236.995 821.313 230.052 811.172 216.839 808.436C203.289 805.617 193.063 812.14 190.16 826.068L185.994 846.141Z" fill="black"/>
<path d="M317.242 769.807L191.969 717.122L212.504 668.267C225.591 637.127 247.725 623.577 275.456 635.233L278.192 636.37C296.412 644.028 304.913 657.62 304.829 674.999L362.563 662.039L348.971 694.399L297.759 704.708L289.175 725.117L329.025 741.865L317.284 769.765L317.242 769.807ZM227.358 699.154L267.209 715.902L276.929 692.757C282.021 680.68 277.56 669.361 265.441 664.311C253.532 659.303 242.171 663.932 237.079 676.009L227.358 699.154Z" fill="black"/>
<path d="M378.806 638.517L263.8 568.159L279.622 542.321L394.628 612.68L378.806 638.517Z" fill="black"/>
<path d="M435.363 555.164L305.882 499.618L325.996 475.758L430.65 522.678L434.69 517.881L369.213 424.504L388.738 401.36L467.176 517.502L435.405 555.206L435.363 555.164Z" fill="black"/>
<path d="M495.92 483.416L446.139 350.441L484.306 319.765L604.74 395.93L580.249 415.582L550.793 396.351L506.903 431.657L519.485 464.437L495.878 483.416H495.92ZM528.616 382.002L483.254 352.377L477.909 356.669L497.393 407.124L528.616 382.002Z" fill="black"/>
<path d="M586.311 330.455L584.459 326.836C569.31 297.043 572.256 255.551 613.874 234.385C646.654 217.721 678.425 226.011 696.015 253.321L668.831 267.124C659.236 253.995 642.951 251.259 626.666 259.549C605.247 270.448 601.123 292.035 612.737 314.927C624.225 337.482 644.34 346.908 666.39 335.715C683.012 327.257 691.175 312.318 686.378 296.748L713.394 283.03C723.914 311.056 713.646 343.415 679.225 360.921C635.755 383.013 600.071 357.681 586.269 330.497L586.311 330.455Z" fill="black"/>
<path d="M793.89 311.429L780.172 262.152L773.776 263.92L713.433 193.898L743.31 185.566L786.19 236.904L791.871 235.305L799.361 169.954L827.639 162.085L815.225 252.39L808.829 254.157L822.547 303.433L793.89 311.429Z" fill="black"/>
<path d="M967.012 265.014L966.086 230.676L933.432 231.56L932.801 207.574L965.455 206.691L964.529 172.185L990.746 171.469L991.671 205.975L1024.54 205.091L1025.17 229.077L992.302 229.961L993.228 264.299L967.012 265.014Z" fill="black"/>
<path d="M1110.8 246.163L1139.46 252.517C1137.23 262.616 1142.99 273.178 1161.59 277.302C1178 280.921 1188.4 275.872 1190.63 265.772C1192.52 257.314 1186.75 250.918 1171.02 245.91L1161.3 242.796C1135.46 234.801 1121.95 216.286 1127.17 192.847C1132.77 167.599 1155.36 156.153 1184.73 162.675C1215.75 169.534 1230.52 190.785 1224.8 216.58L1195.93 210.184C1198.03 200.632 1192.9 190.575 1179.18 187.545C1166.01 184.641 1157.89 190.575 1155.95 199.243C1154.27 206.818 1157.76 214.013 1169.67 217.59L1179.56 220.746C1207.67 229.625 1224.84 247.804 1219.41 272.169C1213.77 297.585 1189.36 309.578 1155.99 302.172C1120.1 294.219 1105.03 271.748 1110.72 246.163H1110.8Z" fill="black"/>
<path d="M1259.26 256.765L1260.9 253.062C1274.53 222.553 1308.62 198.736 1351.29 217.798C1384.83 232.779 1398.38 262.698 1388.23 293.543L1360.42 281.129C1364.63 265.391 1356.46 251.042 1339.76 243.594C1317.83 233.789 1298.44 244.141 1288 267.579C1277.69 290.682 1282.99 312.269 1305.59 322.368C1322.63 329.985 1339.34 326.913 1348.43 313.405L1376.07 325.777C1360.92 351.572 1329.28 363.944 1294.06 348.206C1249.54 328.344 1246.8 284.622 1259.26 256.807V256.765Z" fill="black"/>
<path d="M1368.12 379.013L1483.76 296.577L1523.23 325.529L1480.73 461.575L1455.39 443.017L1466.38 409.605L1420.93 376.278L1392.53 396.897L1368.08 378.971L1368.12 379.013ZM1474.54 384.441L1491.46 332.935L1485.94 328.895L1442.22 360.75L1474.54 384.441Z" fill="black"/>
<path d="M1498.61 481.519L1596.87 389.194L1617.61 411.286L1538.75 485.432L1574.94 523.936L1555.54 542.156L1498.61 481.603V481.519Z" fill="black"/>
<path d="M1573.77 567.318L1683.01 488.333L1700.77 512.866L1591.53 591.851L1573.77 567.318Z" fill="black"/>
<path d="M1615.89 624.134L1736.87 564.59L1758.79 609.154L1682.29 703.414L1683.43 705.728L1782.36 657.041L1794.9 682.584L1673.92 742.128L1651.82 697.228L1728.33 602.968L1727.19 600.653L1628.26 649.34L1615.84 624.134H1615.89Z" fill="black"/>
<path d="M1748.95 756.436L1752.91 755.51C1786.02 747.893 1825.24 762.748 1835.3 806.511C1843.46 841.985 1827.85 871.526 1798.1 881.373L1791.33 851.874C1805.17 846.235 1811.86 830.666 1807.74 812.866C1802.43 789.848 1782.07 780.295 1757.58 785.934C1731.82 791.867 1718.23 810.13 1724 835.168C1727.07 848.508 1734.43 858.354 1743.82 862.815L1754.8 860.29L1746.89 825.911L1768.14 821.029L1784.76 893.365L1763.51 898.247L1761.03 887.432L1738.72 892.566C1717.98 885.581 1703.21 867.402 1697.19 841.27C1686.38 794.098 1716.38 763.926 1748.95 756.436Z" fill="black"/>
<path d="M1371.49 1027.9C1371.49 1040.86 1362.31 1051.67 1350.07 1054.16C1348.34 1054.53 1346.53 1054.7 1344.68 1054.7H1255.26C1240.45 1054.7 1228.46 1066.7 1228.46 1081.51V1170.93C1228.46 1180.19 1223.79 1188.35 1216.63 1193.15C1213.77 1195.08 1210.53 1196.47 1207.04 1197.19C1205.31 1197.52 1203.5 1197.73 1201.65 1197.73H1112.23C1097.42 1197.73 1085.43 1209.73 1085.43 1224.54V1313.96C1085.43 1328.77 1073.43 1340.77 1058.62 1340.77H969.199C954.387 1340.77 942.394 1328.77 942.394 1313.96V1224.54C942.394 1209.73 954.387 1197.73 969.199 1197.73H1058.62C1073.43 1197.73 1085.43 1185.74 1085.43 1170.93V1081.51C1085.43 1066.7 1097.42 1054.7 1112.23 1054.7H1201.65C1216.46 1054.7 1228.46 1042.71 1228.46 1027.9V911.671C1228.46 832.854 1164.7 768.934 1085.93 768.639C1007.2 768.934 943.404 832.854 943.404 911.671V1027.9C943.404 1042.71 931.411 1054.7 916.599 1054.7H827.177C812.365 1054.7 800.372 1066.7 800.372 1081.51V1313.96C800.372 1328.77 788.379 1340.77 773.567 1340.77H684.146C669.334 1340.77 657.341 1328.77 657.341 1313.96V1081.51C657.341 1066.7 669.334 1054.7 684.146 1054.7H773.567C788.379 1054.7 800.372 1042.71 800.372 1027.9V911.166C800.372 753.448 928.213 625.608 1085.93 625.608C1243.65 625.608 1371.49 753.448 1371.49 911.166V1027.9Z" fill="black"/>
<path d="M999.997 1629.14C653.086 1629.14 370.853 1346.91 370.853 999.997C370.853 653.086 653.086 370.852 999.997 370.852C1346.91 370.852 1629.14 653.086 1629.14 999.997C1629.14 1346.91 1346.91 1629.14 999.997 1629.14ZM999.997 396.101C667.015 396.101 396.101 667.015 396.101 999.997C396.101 1332.98 667.015 1603.89 999.997 1603.89C1332.98 1603.89 1603.89 1332.98 1603.89 999.997C1603.89 667.015 1332.98 396.101 999.997 396.101Z" fill="black"/>
<path d="M255.388 1424.47L369.257 1352.22L413.989 1422.7L392.78 1436.17L363.871 1390.64L339.717 1405.95L367.027 1449L345.819 1462.47L318.508 1419.42L292.461 1435.96L322.043 1482.58L300.835 1496.05L255.43 1424.47H255.388Z" fill="black"/>
<path d="M324.106 1529.37L406.71 1515.15L426.236 1441.25L448.665 1465.79L435.283 1513.55L438.145 1516.7L486.663 1507.36L508.461 1531.22L431.917 1544.39L411.802 1625.36L389.247 1600.7L403.723 1545.91L400.735 1542.62L345.862 1553.23L324.064 1529.37H324.106Z" fill="black"/>
<path d="M447.529 1655.53L529.418 1547.09L568.763 1576.8C596.031 1597.37 601.712 1624.14 584.038 1647.58L582.271 1649.93C564.807 1673.08 537.371 1675.05 510.145 1654.48L494.954 1643.03L471.683 1673.83L447.529 1655.57V1655.53ZM537.792 1586.26L510.734 1622.07L527.103 1634.4C538.465 1642.99 550.584 1641.01 558.706 1630.28C567.038 1619.21 565.523 1607.18 554.161 1598.59L537.792 1586.26Z" fill="black"/>
<path d="M571.706 1742.27L634.195 1622.8L661.043 1636.85L610.883 1732.76L657.676 1757.25L645.347 1780.81L571.706 1742.31V1742.27Z" fill="black"/>
<path d="M700.726 1735.2L701.904 1731.33C711.624 1699.35 745.373 1672.33 790.778 1686.17C836.014 1699.93 849.312 1741.26 839.549 1773.24L838.371 1777.11C829.534 1806.1 795.912 1836.61 749.286 1822.39C702.619 1808.17 691.889 1764.19 700.726 1735.2ZM809.588 1766.42C816.91 1742.39 806.937 1720.64 782.53 1713.19C758.165 1705.78 737.925 1718.32 730.603 1742.35C723.702 1764.99 733.128 1787.92 757.534 1795.33C781.899 1802.74 802.729 1789.02 809.588 1766.38V1766.42Z" fill="black"/>
<path d="M873.761 1848.38L885.375 1712.93L938.186 1717.47C971.85 1720.38 991.544 1737.25 988.977 1767.25L988.725 1770.2C987.041 1789.89 976.732 1802.18 960.152 1807.4L990.239 1858.36L955.271 1855.37L929.728 1809.8L907.635 1807.9L903.932 1850.95L873.761 1848.34V1848.38ZM913.358 1741.12L909.655 1784.17L934.693 1786.32C947.738 1787.45 957.122 1779.71 958.258 1766.66C959.352 1753.79 951.441 1744.4 938.396 1743.27L913.358 1741.12Z" fill="black"/>
<path d="M1026.22 1858.45L1055.55 1719.5L1104.19 1714.07L1165 1842.96L1133.77 1846.46L1119.26 1814.43L1063.25 1820.66L1056.3 1855.08L1026.22 1858.41V1858.45ZM1108.23 1790.41L1085.84 1741.04L1079.07 1741.8L1068.42 1794.82L1108.27 1790.41H1108.23Z" fill="black"/>
<path d="M1224.08 1826.54L1193.91 1722.39L1157.55 1732.91L1150.19 1707.54L1252.19 1678L1259.55 1703.37L1222.99 1713.94L1253.16 1818.08L1224.08 1826.5V1826.54Z" fill="black"/>
<path d="M1331.3 1789.69L1276.89 1666.31L1304.62 1654.07L1359.03 1777.45L1331.3 1789.69Z" fill="black"/>
<path d="M1370.56 1701.91L1368.33 1698.5C1350.07 1670.47 1351.03 1627.3 1390.84 1601.42C1430.44 1575.62 1470.67 1591.95 1488.89 1619.98L1491.12 1623.39C1507.66 1648.76 1509.42 1694.12 1468.56 1720.72C1427.7 1747.31 1387.1 1727.28 1370.56 1701.91ZM1464.4 1638.58C1450.68 1617.54 1427.62 1611.18 1406.24 1625.11C1384.91 1639.04 1381.5 1662.61 1395.22 1683.65C1408.14 1703.47 1431.74 1711 1453.12 1697.07C1474.5 1683.14 1477.32 1658.4 1464.4 1638.58Z" fill="black"/>
<path d="M1570.19 1641.86L1473.19 1548.19L1507.7 1512.46L1622.28 1552.52L1624.09 1550.67L1544.77 1474.08L1564.55 1453.63L1661.55 1547.26L1626.79 1583.28L1512.2 1543.22L1510.39 1545.07L1589.71 1621.66L1570.23 1641.86H1570.19Z" fill="black"/>
<path d="M1658.18 1483.39L1673.92 1458.6C1682.63 1464.16 1694.54 1462.31 1704.76 1446.23C1713.77 1432.05 1712.55 1420.56 1703.8 1415.01C1696.47 1410.34 1688.48 1413.62 1678.42 1426.71L1672.19 1434.79C1655.87 1456.37 1633.86 1462.73 1613.62 1449.85C1591.78 1436.01 1588.71 1410.84 1604.87 1385.43C1621.91 1358.62 1646.9 1351.97 1669.21 1366.11L1653.38 1391.06C1645.14 1385.8 1633.94 1387.23 1626.41 1399.1C1619.17 1410.46 1621.99 1420.14 1629.48 1424.9C1636.05 1429.06 1644 1428.22 1651.41 1418.25L1657.72 1410C1675.64 1386.6 1698.58 1376.67 1719.62 1390.01C1741.58 1403.98 1744.57 1431 1726.23 1459.87C1706.53 1490.88 1680.27 1497.4 1658.14 1483.35L1658.18 1483.39Z" fill="black"/>
<path d="M1743.58 1124.78L1735.5 1164.36C1734.17 1170.9 1738.38 1177.28 1744.92 1178.61L1784.5 1186.69C1791.04 1188.03 1797.42 1183.81 1798.75 1177.28L1806.83 1137.7C1808.17 1131.16 1803.95 1124.78 1797.41 1123.45L1757.83 1115.37C1751.3 1114.03 1744.92 1118.25 1743.58 1124.78Z" fill="black"/>
<path d="M242.21 1115.36L202.63 1123.44C196.095 1124.77 191.879 1131.15 193.213 1137.69L201.294 1177.27C202.629 1183.8 209.008 1188.02 215.543 1186.68L255.124 1178.6C261.659 1177.27 265.875 1170.89 264.541 1164.35L256.459 1124.77C255.125 1118.24 248.746 1114.02 242.21 1115.36Z" fill="black"/>
</svg>
