<svg width="16" height="16" viewBox="0 0 16 16" fill="none" xmlns="http://www.w3.org/2000/svg">
<rect width="16" height="16" rx="2" fill="#F3F3F4"/>
<path d="M4.23681 5.98583C4.65062 6.15745 5.19261 5.98802 5.63029 6.39088C6.12524 6.84683 6.31408 7.46277 6.30795 8.06925C6.30386 8.47139 6.03184 8.89825 5.6787 9.22694C5.1483 9.72071 4.517 9.8087 3.87889 9.9076C3.44189 9.97522 3.03012 9.81015 2.64561 9.61381C2.34087 9.45819 1.98909 9.29966 1.79616 9.03133C1.56232 8.70627 1.39188 8.27359 1.34825 7.86854C1.31894 7.59584 1.5071 7.24824 1.6864 7.00754C2.14248 6.39525 2.78196 6.12473 3.51075 6.07528C3.73436 6.06001 3.95593 6.02074 4.23681 5.98511V5.98583ZM4.8047 9.00733C4.64449 8.69245 4.4386 8.42921 4.38065 8.13324C4.31725 7.81255 4.34997 7.45259 4.41542 7.12608C4.4945 6.73703 4.50064 6.6854 4.10591 6.71448C3.77526 6.73848 3.45007 6.84538 3.11874 6.87301C2.69265 6.90864 2.42541 7.17771 2.26861 7.54058C2.09408 7.94417 2.2577 8.40448 2.57062 8.69609C3.05466 9.14622 3.63551 9.20367 4.23408 9.16149C4.44678 9.14695 4.65471 9.04951 4.8047 9.00733Z" fill="black"/>
<path d="M12.323 6.27317C13.154 6.23535 13.9135 6.48115 14.4309 7.23088C14.7963 7.76028 14.7104 8.73254 14.1984 9.24449C13.4594 9.98331 12.5527 10.0735 11.6385 9.98913C11.0958 9.93896 10.4857 9.73316 10.1407 9.27503C9.85368 8.89325 9.75824 8.32967 9.64984 7.82864C9.6178 7.68102 9.79233 7.4265 9.93481 7.30142C10.6193 6.70294 11.3501 6.19536 12.3223 6.27317H12.323ZM13.109 9.25248C12.3536 8.55583 12.4634 7.77337 12.867 6.948C12.1614 6.81929 11.5103 6.81929 10.8879 7.26797C10.3275 7.67229 10.2573 8.48966 10.8347 8.88161C11.4606 9.3063 12.1703 9.42774 12.9072 9.36084C12.9659 9.35575 13.0211 9.30193 13.109 9.25321V9.25248Z" fill="black"/>
</svg>
