<svg fill="none" height="691" viewBox="0 0 834 691" width="834" xmlns="http://www.w3.org/2000/svg" xmlns:xlink="http://www.w3.org/1999/xlink"><filter id="a" color-interpolation-filters="sRGB" filterUnits="userSpaceOnUse" height="2959.43" width="2515.55" x="-508.537" y="-263.856"><feFlood flood-opacity="0" result="BackgroundImageFix"/><feBlend in="SourceGraphic" in2="BackgroundImageFix" mode="normal" result="shape"/><feGaussianBlur result="effect1_foregroundBlur_486_745" stdDeviation="120"/></filter><filter id="b" color-interpolation-filters="sRGB" filterUnits="userSpaceOnUse" height="714.866" width="1361.95" x="525.905" y="-81.5479"><feFlood flood-opacity="0" result="BackgroundImageFix"/><feBlend in="SourceGraphic" in2="BackgroundImageFix" mode="normal" result="shape"/><feGaussianBlur result="effect1_foregroundBlur_486_745" stdDeviation="96"/></filter><filter id="c" color-interpolation-filters="sRGB" filterUnits="userSpaceOnUse" height="685.586" width="1058.69" x="517.271" y="142.508"><feFlood flood-opacity="0" result="BackgroundImageFix"/><feBlend in="SourceGraphic" in2="BackgroundImageFix" mode="normal" result="shape"/><feGaussianBlur result="effect1_foregroundBlur_486_745" stdDeviation="96"/></filter><linearGradient id="d" gradientUnits="userSpaceOnUse" x1="1029.74" x2="634.513" y1="1024.28" y2="879.002"><stop offset="0" stop-color="#0099c9"/><stop offset=".254996" stop-color="#95cb24" stop-opacity=".906147"/><stop offset="1" stop-color="#fff" stop-opacity="0"/></linearGradient><linearGradient id="e" gradientUnits="userSpaceOnUse" x1="843.075" x2="1174.61" y1="477.396" y2="330.176"><stop offset="0" stop-color="#97bedb"/><stop offset=".145" stop-color="#2b9fed"/><stop offset="1" stop-color="#fff" stop-opacity="0"/></linearGradient><linearGradient id="f" gradientUnits="userSpaceOnUse" x1="750.336" x2="1010.23" y1="446.127" y2="450.144"><stop offset=".602207" stop-color="#f66c3b"/><stop offset="1" stop-color="#fff" stop-opacity="0"/></linearGradient><clipPath id="g"><path d="m0 0h691v834h-691z" transform="matrix(0 1 -1 0 834 0)"/></clipPath><g clip-path="url(#g)"><g filter="url(#a)"><g stroke="#fff" stroke-dasharray="7.5 7.5" stroke-width="3.75"><path d="m.466474-3.33773h1428.19v1354.99h-1428.19z" opacity=".6" transform="matrix(.558713 -.829361 -.309927 -.95076 966.139 2449.45)"/><path d="m.466474-3.33773h1296.74v1230.26h-1296.74z" opacity=".6" transform="matrix(.558713 -.829361 -.309927 -.95076 983.532 2335.64)"/><path d="m.466474-3.33773h1175.15v1114.88h-1175.15z" opacity=".6" transform="matrix(.558713 -.829361 -.309927 -.95076 951.993 2368.64)"/><path d="m.466474-3.33773h1045.86v992.2h-1045.86z" opacity=".6" transform="matrix(.558713 -.829361 -.309927 -.95076 1018.32 2108.03)"/></g><path d="m1068.33 971.865 106.71-162.427-1056.122-147.588-106.7137 162.427z" fill="url(#d)" fill-opacity=".5"/></g><g filter="url(#b)"><path d="m809.96 441.318-92.055-113.011 885.895-217.855 92.06 113.012z" fill="url(#e)" fill-opacity=".5"/></g><g filter="url(#c)"><path d="m738.411 493.278-29.14 142.817 645.549-158.77 29.14-142.816z" fill="url(#f)" fill-opacity=".5"/></g></g></svg>