<svg width="2878" height="1026" viewBox="0 0 2878 1026" fill="none" xmlns="http://www.w3.org/2000/svg">
<g clip-path="url(#clip0_454_16187)">
<g filter="url(#filter0_f_454_16187)">
<rect opacity="0.6" x="-3.33773" y="-0.466474" width="1428.19" height="1354.99" transform="matrix(-0.829361 -0.558713 -0.95076 0.309927 3128.02 106.845)" stroke="white" stroke-width="3.75" stroke-dasharray="7.5 7.5"/>
<rect opacity="0.6" x="-3.33773" y="-0.466474" width="1296.74" height="1230.26" transform="matrix(-0.829361 -0.558713 -0.95076 0.309927 3014.22 89.4524)" stroke="white" stroke-width="3.75" stroke-dasharray="7.5 7.5"/>
<rect opacity="0.6" x="-3.33773" y="-0.466474" width="1175.15" height="1114.88" transform="matrix(-0.829361 -0.558713 -0.95076 0.309927 3047.21 120.992)" stroke="white" stroke-width="3.75" stroke-dasharray="7.5 7.5"/>
<rect opacity="0.6" x="-3.33773" y="-0.466474" width="1045.86" height="992.2" transform="matrix(-0.829361 -0.558713 -0.95076 0.309927 2786.6 54.6678)" stroke="white" stroke-width="3.75" stroke-dasharray="7.5 7.5"/>
<rect opacity="0.1" x="-3.33773" y="-0.466474" width="425.322" height="425.322" rx="9.375" transform="matrix(-0.829361 -0.558713 -0.95076 0.309927 2234.69 105.09)" stroke="url(#paint0_linear_454_16187)" stroke-width="3.75" stroke-linejoin="round"/>
<rect opacity="0.1" x="-3.33773" y="-0.466474" width="425.322" height="425.322" rx="9.375" transform="matrix(-0.829361 -0.558713 -0.95076 0.309927 2226.39 164.513)" stroke="url(#paint1_linear_454_16187)" stroke-width="3.75" stroke-linejoin="round"/>
<path d="M1954.75 973.611L2140.21 1031.7L1959.37 -262.107L1773.91 -320.201L1954.75 973.611Z" fill="url(#paint2_linear_454_16187)" fill-opacity="0.5"/>
<path d="M1858.4 139.858L2043.86 81.765L1875.48 1286.44L1690.02 1344.54L1858.4 139.858Z" fill="url(#paint3_linear_454_16187)" fill-opacity="0.5"/>
<path d="M1650.86 7.66992L1488.44 -99.0434L1340.85 957.082L1503.28 1063.8L1650.86 7.66992Z" fill="url(#paint4_linear_454_16187)" fill-opacity="0.5"/>
<path d="M1833.4 129.564L1670.97 22.8511L1548.3 900.709L1710.72 1007.42L1833.4 129.564Z" fill="url(#paint5_linear_454_16187)" fill-opacity="0.5"/>
</g>
<g filter="url(#filter1_f_454_16187)">
<path d="M1120.32 266.041L1007.31 358.096L789.452 -527.802L902.464 -619.857L1120.32 266.041Z" fill="url(#paint6_linear_454_16187)" fill-opacity="0.5"/>
</g>
<g filter="url(#filter2_f_454_16187)">
<path d="M1801.05 435.802L1943.87 464.942L1752.86 -311.705L1610.04 -340.845L1801.05 435.802Z" fill="url(#paint7_linear_454_16187)" fill-opacity="0.5"/>
</g>
<g filter="url(#filter3_f_454_16187)">
<path d="M1172.28 337.589L1315.09 366.73L1156.33 -278.824L1013.51 -307.964L1172.28 337.589Z" fill="url(#paint8_linear_454_16187)" fill-opacity="0.5"/>
</g>
</g>
<defs>
<filter id="filter0_f_454_16187" x="415.144" y="-931.011" width="2959.43" height="2515.55" filterUnits="userSpaceOnUse" color-interpolation-filters="sRGB">
<feFlood flood-opacity="0" result="BackgroundImageFix"/>
<feBlend mode="normal" in="SourceGraphic" in2="BackgroundImageFix" result="shape"/>
<feGaussianBlur stdDeviation="120" result="effect1_foregroundBlur_454_16187"/>
</filter>
<filter id="filter1_f_454_16187" x="597.452" y="-811.857" width="714.866" height="1361.95" filterUnits="userSpaceOnUse" color-interpolation-filters="sRGB">
<feFlood flood-opacity="0" result="BackgroundImageFix"/>
<feBlend mode="normal" in="SourceGraphic" in2="BackgroundImageFix" result="shape"/>
<feGaussianBlur stdDeviation="96" result="effect1_foregroundBlur_454_16187"/>
</filter>
<filter id="filter2_f_454_16187" x="1418.04" y="-532.845" width="717.826" height="1189.79" filterUnits="userSpaceOnUse" color-interpolation-filters="sRGB">
<feFlood flood-opacity="0" result="BackgroundImageFix"/>
<feBlend mode="normal" in="SourceGraphic" in2="BackgroundImageFix" result="shape"/>
<feGaussianBlur stdDeviation="96" result="effect1_foregroundBlur_454_16187"/>
</filter>
<filter id="filter3_f_454_16187" x="821.508" y="-499.964" width="685.586" height="1058.69" filterUnits="userSpaceOnUse" color-interpolation-filters="sRGB">
<feFlood flood-opacity="0" result="BackgroundImageFix"/>
<feBlend mode="normal" in="SourceGraphic" in2="BackgroundImageFix" result="shape"/>
<feGaussianBlur stdDeviation="96" result="effect1_foregroundBlur_454_16187"/>
</filter>
<linearGradient id="paint0_linear_454_16187" x1="214.536" y1="0" x2="214.536" y2="429.072" gradientUnits="userSpaceOnUse">
<stop offset="0.442708" stop-color="white" stop-opacity="0.17"/>
<stop offset="1" stop-color="white"/>
</linearGradient>
<linearGradient id="paint1_linear_454_16187" x1="214.536" y1="0" x2="214.536" y2="429.072" gradientUnits="userSpaceOnUse">
<stop offset="0.442708" stop-color="white" stop-opacity="0.17"/>
<stop offset="1" stop-color="white"/>
</linearGradient>
<linearGradient id="paint2_linear_454_16187" x1="1893.66" y1="950.198" x2="1901.84" y2="428.952" gradientUnits="userSpaceOnUse">
<stop stop-color="#F63B7E"/>
<stop offset="0.145" stop-color="#F66C3B" stop-opacity="0.72"/>
<stop offset="1" stop-color="white" stop-opacity="0"/>
</linearGradient>
<linearGradient id="paint3_linear_454_16187" x1="1797.35" y1="163.019" x2="1815.68" y2="646.336" gradientUnits="userSpaceOnUse">
<stop stop-color="#1246FF"/>
<stop offset="0.346825" stop-color="#F452F7" stop-opacity="0.48"/>
<stop offset="1" stop-color="white" stop-opacity="0"/>
</linearGradient>
<linearGradient id="paint4_linear_454_16187" x1="1703.28" y1="46.2595" x2="1558" y2="441.487" gradientUnits="userSpaceOnUse">
<stop stop-color="#0099C9"/>
<stop offset="0.254996" stop-color="#95CB24" stop-opacity="0.906147"/>
<stop offset="1" stop-color="white" stop-opacity="0"/>
</linearGradient>
<linearGradient id="paint5_linear_454_16187" x1="1885.88" y1="167.649" x2="1752.37" y2="487.47" gradientUnits="userSpaceOnUse">
<stop stop-color="#2A8300"/>
<stop offset="0.4" stop-color="#D1AB25" stop-opacity="0.855"/>
<stop offset="1" stop-color="white" stop-opacity="0"/>
</linearGradient>
<linearGradient id="paint6_linear_454_16187" x1="1156.4" y1="232.926" x2="1009.18" y2="-98.605" gradientUnits="userSpaceOnUse">
<stop stop-color="#97BEDB"/>
<stop offset="0.145" stop-color="#2B9FED"/>
<stop offset="1" stop-color="white" stop-opacity="0"/>
</linearGradient>
<linearGradient id="paint7_linear_454_16187" x1="1753.8" y1="423.507" x2="1745.04" y2="107.816" gradientUnits="userSpaceOnUse">
<stop stop-color="#0099C9"/>
<stop offset="0.254996" stop-color="#95CB24" stop-opacity="0.906147"/>
<stop offset="1" stop-color="white" stop-opacity="0"/>
</linearGradient>
<linearGradient id="paint8_linear_454_16187" x1="1125.13" y1="325.665" x2="1129.14" y2="65.7688" gradientUnits="userSpaceOnUse">
<stop offset="0.602207" stop-color="#F66C3B"/>
<stop offset="1" stop-color="white" stop-opacity="0"/>
</linearGradient>
<clipPath id="clip0_454_16187">
<rect width="2878" height="1026" fill="white"/>
</clipPath>
</defs>
</svg>
