<svg width="834" height="691" viewBox="0 0 834 691" fill="none" xmlns="http://www.w3.org/2000/svg">
<g clip-path="url(#clip0_486_745)">
<g filter="url(#filter0_f_486_745)">
<rect opacity="0.6" x="0.466474" y="-3.33773" width="1428.19" height="1354.99" transform="matrix(0.558713 -0.829361 -0.309927 -0.95076 966.139 2449.45)" stroke="white" stroke-width="3.75" stroke-dasharray="7.5 7.5"/>
<rect opacity="0.6" x="0.466474" y="-3.33773" width="1296.74" height="1230.26" transform="matrix(0.558713 -0.829361 -0.309927 -0.95076 983.532 2335.64)" stroke="white" stroke-width="3.75" stroke-dasharray="7.5 7.5"/>
<rect opacity="0.6" x="0.466474" y="-3.33773" width="1175.15" height="1114.88" transform="matrix(0.558713 -0.829361 -0.309927 -0.95076 951.993 2368.64)" stroke="white" stroke-width="3.75" stroke-dasharray="7.5 7.5"/>
<rect opacity="0.6" x="0.466474" y="-3.33773" width="1045.86" height="992.2" transform="matrix(0.558713 -0.829361 -0.309927 -0.95076 1018.32 2108.03)" stroke="white" stroke-width="3.75" stroke-dasharray="7.5 7.5"/>
<path d="M1068.33 971.865L1175.04 809.438L118.918 661.85L12.2043 824.277L1068.33 971.865Z" fill="url(#paint0_linear_486_745)" fill-opacity="0.5"/>
</g>
<g filter="url(#filter1_f_486_745)">
<path d="M809.96 441.318L717.905 328.307L1603.8 110.452L1695.86 223.464L809.96 441.318Z" fill="url(#paint1_linear_486_745)" fill-opacity="0.5"/>
</g>
<g filter="url(#filter2_f_486_745)">
<path d="M738.411 493.278L709.271 636.095L1354.82 477.325L1383.96 334.509L738.411 493.278Z" fill="url(#paint2_linear_486_745)" fill-opacity="0.5"/>
</g>
</g>
<defs>
<filter id="filter0_f_486_745" x="-508.537" y="-263.856" width="2515.55" height="2959.43" filterUnits="userSpaceOnUse" color-interpolation-filters="sRGB">
<feFlood flood-opacity="0" result="BackgroundImageFix"/>
<feBlend mode="normal" in="SourceGraphic" in2="BackgroundImageFix" result="shape"/>
<feGaussianBlur stdDeviation="120" result="effect1_foregroundBlur_486_745"/>
</filter>
<filter id="filter1_f_486_745" x="525.905" y="-81.5479" width="1361.95" height="714.866" filterUnits="userSpaceOnUse" color-interpolation-filters="sRGB">
<feFlood flood-opacity="0" result="BackgroundImageFix"/>
<feBlend mode="normal" in="SourceGraphic" in2="BackgroundImageFix" result="shape"/>
<feGaussianBlur stdDeviation="96" result="effect1_foregroundBlur_486_745"/>
</filter>
<filter id="filter2_f_486_745" x="517.271" y="142.508" width="1058.69" height="685.586" filterUnits="userSpaceOnUse" color-interpolation-filters="sRGB">
<feFlood flood-opacity="0" result="BackgroundImageFix"/>
<feBlend mode="normal" in="SourceGraphic" in2="BackgroundImageFix" result="shape"/>
<feGaussianBlur stdDeviation="96" result="effect1_foregroundBlur_486_745"/>
</filter>
<linearGradient id="paint0_linear_486_745" x1="1029.74" y1="1024.28" x2="634.513" y2="879.002" gradientUnits="userSpaceOnUse">
<stop stop-color="#0099C9"/>
<stop offset="0.254996" stop-color="#95CB24" stop-opacity="0.906147"/>
<stop offset="1" stop-color="white" stop-opacity="0"/>
</linearGradient>
<linearGradient id="paint1_linear_486_745" x1="843.075" y1="477.396" x2="1174.61" y2="330.176" gradientUnits="userSpaceOnUse">
<stop stop-color="#97BEDB"/>
<stop offset="0.145" stop-color="#2B9FED"/>
<stop offset="1" stop-color="white" stop-opacity="0"/>
</linearGradient>
<linearGradient id="paint2_linear_486_745" x1="750.336" y1="446.127" x2="1010.23" y2="450.144" gradientUnits="userSpaceOnUse">
<stop offset="0.602207" stop-color="#F66C3B"/>
<stop offset="1" stop-color="white" stop-opacity="0"/>
</linearGradient>
<clipPath id="clip0_486_745">
<rect width="691" height="834" fill="white" transform="translate(834) rotate(90)"/>
</clipPath>
</defs>
</svg>
